<svg width="184" height="27" viewBox="0 0 184 27" fill="none" xmlns="http://www.w3.org/2000/svg">
<g clip-path="url(#clip0_52_205)">
<path d="M125.096 24.0179H113.128C112.123 24.0315 111.135 23.7523 110.286 23.2143C109.346 22.5655 108.585 21.4822 108.579 19.4881V7.48217C108.571 6.47411 108.856 5.48546 109.4 4.63693C110.054 3.69646 111.13 2.93455 113.128 2.92265H125.096C126.105 2.92039 127.094 3.20752 127.944 3.75003C128.878 4.40479 129.639 5.48812 129.651 7.48217V19.4703C129.651 20.4761 129.364 21.4611 128.824 22.3096C128.176 23.25 127.094 24.0119 125.096 24.0179ZM129.996 1.69646C128.598 0.597985 126.873 0.000634956 125.096 2.94456e-05H113.128C112.031 -0.048334 110.938 0.159344 109.935 0.606654C108.932 1.05396 108.046 1.72865 107.349 2.57741C106.253 3.97672 105.658 5.70402 105.66 7.48217V19.4703C105.609 20.5656 105.813 21.6577 106.256 22.6607C106.699 23.6636 107.368 24.55 108.211 25.25C109.61 26.3452 111.334 26.9422 113.11 26.9465H125.102C126.196 26.995 127.286 26.791 128.288 26.3503C129.29 25.9095 130.178 25.2439 130.882 24.4048C131.983 22.9958 132.583 21.2593 132.588 19.4703V7.48217C132.631 6.38405 132.421 5.29069 131.974 4.28719C131.526 3.28369 130.853 2.39712 130.008 1.69646" fill="#B48C50"/>
<path d="M61.7337 1.7857C60.5178 0.685795 58.9428 0.0677896 57.3042 0.0476074H39.8358V2.97618H57.3042C58.6182 3.01785 61.3234 3.57142 61.3413 7.52975C61.3591 11.4881 58.6122 12.0536 57.3042 12.0893H45.2404V15.0119H57.3042C58.6241 15.0536 61.3234 15.6071 61.3413 19.5178C61.3591 23.4286 58.6182 24.0357 57.3042 24.0714H39.8358V27H57.3042C58.9392 26.9836 60.5128 26.3746 61.7337 25.2857C63.0714 24.0952 64.0406 22.1905 64.0346 19.5178C64.0346 17.2678 63.3271 15.6012 61.5731 13.5655C63.3568 11.4643 64.0465 9.80356 64.0346 7.54761C64.0346 4.87499 63.0714 2.97618 61.7337 1.77975" fill="#B48C50"/>
<path d="M94.2088 12.3988V14.9583H99.2923V24.0238C98.454 24.0238 96.1293 24.0238 92.2408 24.0238C89.7397 24.0238 86.5845 24.0238 82.7753 24.0238C81.2711 23.9881 78.2269 23.3988 78.221 19.4702V7.47619C78.2566 5.97619 78.8512 2.92857 82.7753 2.92262H100.761V0H82.7694C77.3588 0 75.3016 4.375 75.2957 7.47619V19.4643C75.2957 24.881 79.6598 26.9345 82.7694 26.9464H102.212V12.0357H94.2088V12.3988Z" fill="#B48C50"/>
<path d="M138.944 19.4643V0H136.019V19.4643C136.019 24.881 140.383 26.9405 143.486 26.9464H154.307V24.0179H143.486C141.988 23.9881 138.95 23.3929 138.944 19.4643Z" fill="#B48C50"/>
<path d="M1.07616 0H0V2.92262H1.07616C2.57447 2.97619 5.61864 3.57143 5.62458 7.48214V26.9464H8.54984V7.48214C8.53795 2.05952 4.16195 0 1.07616 0Z" fill="#B48C50"/>
<path d="M176.532 0H157.025V2.92262H176.532C180.45 2.92262 181.039 5.97619 181.075 7.48214V19.4643C181.075 23.3869 177.977 23.9881 176.479 24.0179C172.662 24.0179 169.505 24.0179 167.007 24.0179C163.113 24.0179 160.788 24.0179 159.95 24.0179V5.82738H157.025V26.9464H176.532C179.636 26.9464 183.994 24.881 184 19.4643V7.48214C183.994 4.36905 181.937 0 176.532 0" fill="#B48C50"/>
<path d="M29.6926 0H14.3706V2.92262H29.6926C33.147 2.92262 33.7594 5.89881 33.8129 7.39286C33.7594 8.8869 33.147 11.8631 29.6926 11.8631L18.5564 11.9048C17.521 11.8618 16.4911 12.075 15.5577 12.5256C14.6243 12.9762 13.8164 13.6503 13.2053 14.4881C12.2012 15.9215 11.6635 17.6302 11.6654 19.381V19.744C11.82 22.7679 13.4193 27.0179 18.2056 27.0298H36.2685V24.0714H18.2472C17.6044 24.1192 16.9619 23.975 16.401 23.6572C15.8401 23.3393 15.3859 22.862 15.096 22.2857C14.6564 21.3558 14.4328 20.3383 14.442 19.3095C14.4895 17.8214 15.0901 14.8095 18.5623 14.8155H29.6926C34.4491 14.8155 36.3636 10.8988 36.542 7.875V7.50595C36.543 5.75718 36.0053 4.05064 35.002 2.61905C34.3909 1.78091 33.5831 1.10627 32.6498 0.654699C31.7166 0.203125 30.6867 -0.0115028 29.651 0.0297619" fill="#B48C50"/>
</g>
<defs>
<clipPath id="clip0_52_205">
<rect width="184" height="27" fill="white"/>
</clipPath>
</defs>
</svg>
