<svg width="63" height="18" viewBox="0 0 63 18" fill="none" xmlns="http://www.w3.org/2000/svg">
<path d="M4.68 14.72V3.24C4.68 2.72 4.58667 2.37333 4.4 2.2C4.22667 2.01333 3.86 1.88 3.3 1.8C3.1 1.8 3 1.73333 3 1.6C3.02667 1.56 3.05333 1.53333 3.08 1.52C3.12 1.50667 3.14667 1.49333 3.16 1.48H3.54L5.7 1.54L5.82 1.52L7.4 1.48C7.84 1.48 8.08 1.5 8.12 1.54L8.14 1.64C8.08667 1.70667 8.04667 1.74667 8.02 1.76L7.8 1.8C7.32 1.8 6.97333 1.91333 6.76 2.14C6.56 2.36667 6.46 2.73333 6.46 3.24L6.48 3.32V13.64C6.48 14.4533 6.42 15.0733 6.3 15.5C6.14 16.1 5.78 16.6 5.22 17C4.92667 17.2 4.54 17.36 4.06 17.48C3.58 17.6133 3.12 17.68 2.68 17.68C2.30667 17.68 2.04667 17.6667 1.9 17.64C1.76667 17.6267 1.56667 17.5867 1.3 17.52C0.926667 17.4 0.62 17.22 0.38 16.98C0.166667 16.7267 0.06 16.4867 0.06 16.26C0.06 15.94 0.226667 15.74 0.56 15.66L0.8 15.62C1.08 15.62 1.34667 15.8667 1.6 16.36C1.76 16.68 1.88667 16.8867 1.98 16.98C2.19333 17.1533 2.48667 17.24 2.86 17.24C3.31333 17.24 3.69333 17.14 4 16.94C4.26667 16.74 4.45333 16.48 4.56 16.16C4.64 15.84 4.68 15.46 4.68 15.02V14.72ZM11.682 8.28L11.622 9.1C11.622 10.14 11.9087 10.9933 12.482 11.66C13.002 12.2867 13.6487 12.6 14.422 12.6C15.0887 12.6 15.6887 12.3533 16.222 11.86L16.402 11.64C16.4687 11.5467 16.562 11.4933 16.682 11.48L16.782 11.5C16.822 11.5267 16.8554 11.5867 16.882 11.68C16.882 11.7733 16.8154 11.9067 16.682 12.08C16.5487 12.24 16.3887 12.4 16.202 12.56C15.922 12.76 15.5754 12.92 15.162 13.04C14.7487 13.1733 14.3287 13.24 13.902 13.24C12.9287 13.24 12.0754 12.9733 11.342 12.44C10.8754 12.08 10.5154 11.64 10.262 11.12C10.022 10.5867 9.90203 10.0267 9.90203 9.44C9.90203 8.14667 10.3754 7.06667 11.322 6.2C11.6687 5.86667 12.062 5.62667 12.502 5.48C12.942 5.32 13.4287 5.24 13.962 5.24C14.6954 5.24 15.3487 5.42 15.922 5.78C16.4954 6.14 16.8887 6.67333 17.102 7.38L17.162 7.74L17.202 7.94C17.202 8.16667 17.0487 8.28 16.742 8.28H11.682ZM11.782 7.78H15.302C15.502 7.78 15.602 7.64667 15.602 7.38C15.602 7.15333 15.542 6.89333 15.422 6.6C15.302 6.30667 15.182 6.1 15.062 5.98C14.742 5.72667 14.362 5.6 13.922 5.6C13.4954 5.6 13.1354 5.69333 12.842 5.88C12.5487 6.05333 12.3154 6.3 12.142 6.62C11.982 6.92667 11.862 7.31333 11.782 7.78ZM24.4245 7.7L22.4445 13C22.4045 13.12 22.3045 13.1933 22.1445 13.22C21.9979 13.22 21.9179 13.1533 21.9045 13.02L19.8845 6.66C19.7912 6.36667 19.6112 6.14 19.3445 5.98L18.5845 5.6C18.5845 5.53333 18.6245 5.48667 18.7045 5.46L19.0045 5.42L20.2645 5.46L22.0445 5.4C22.2845 5.4 22.4179 5.46 22.4445 5.58C22.4445 5.67333 22.2712 5.74667 21.9245 5.8C21.7245 5.8 21.5712 5.86 21.4645 5.98C21.3712 6.1 21.3112 6.26667 21.2845 6.48L21.3645 6.92L22.7045 11.12L24.7245 5.62L24.7845 5.5L24.9045 5.44C24.9979 5.49333 25.0512 5.54667 25.0645 5.6L27.2645 11.32L28.5645 7.08L28.6245 6.82L28.6645 6.48C28.6645 6.28 28.5979 6.11333 28.4645 5.98C28.3312 5.83333 28.1179 5.76 27.8245 5.76C27.6245 5.76 27.5245 5.70667 27.5245 5.6L27.5845 5.48C27.6512 5.44 27.7379 5.42 27.8445 5.42L28.3245 5.46L28.7245 5.48L30.0045 5.42C30.2179 5.42 30.3312 5.47333 30.3445 5.58C30.2112 5.63333 30.0979 5.68667 30.0045 5.74C29.9112 5.78 29.7979 5.86 29.6645 5.98C29.4512 6.15333 29.2579 6.48667 29.0845 6.98L27.1045 12.9C27.0245 13.1 26.9179 13.2067 26.7845 13.22C26.6645 13.22 26.5579 13.1067 26.4645 12.88L24.4245 7.7ZM33.8891 8.28L33.8291 9.1C33.8291 10.14 34.1157 10.9933 34.6891 11.66C35.2091 12.2867 35.8557 12.6 36.6291 12.6C37.2957 12.6 37.8957 12.3533 38.4291 11.86L38.6091 11.64C38.6757 11.5467 38.7691 11.4933 38.8891 11.48L38.9891 11.5C39.0291 11.5267 39.0624 11.5867 39.0891 11.68C39.0891 11.7733 39.0224 11.9067 38.8891 12.08C38.7557 12.24 38.5957 12.4 38.4091 12.56C38.1291 12.76 37.7824 12.92 37.3691 13.04C36.9557 13.1733 36.5357 13.24 36.1091 13.24C35.1357 13.24 34.2824 12.9733 33.5491 12.44C33.0824 12.08 32.7224 11.64 32.4691 11.12C32.2291 10.5867 32.1091 10.0267 32.1091 9.44C32.1091 8.14667 32.5824 7.06667 33.5291 6.2C33.8757 5.86667 34.2691 5.62667 34.7091 5.48C35.1491 5.32 35.6357 5.24 36.1691 5.24C36.9024 5.24 37.5557 5.42 38.1291 5.78C38.7024 6.14 39.0957 6.67333 39.3091 7.38L39.3691 7.74L39.4091 7.94C39.4091 8.16667 39.2557 8.28 38.9491 8.28H33.8891ZM33.9891 7.78H37.5091C37.7091 7.78 37.8091 7.64667 37.8091 7.38C37.8091 7.15333 37.7491 6.89333 37.6291 6.6C37.5091 6.30667 37.3891 6.1 37.2691 5.98C36.9491 5.72667 36.5691 5.6 36.1291 5.6C35.7024 5.6 35.3424 5.69333 35.0491 5.88C34.7557 6.05333 34.5224 6.3 34.3491 6.62C34.1891 6.92667 34.0691 7.31333 33.9891 7.78ZM43.9516 6.98C44.1516 6.56667 44.4049 6.22667 44.7116 5.96C45.0316 5.68 45.4249 5.48667 45.8916 5.38L46.4316 5.34C46.6716 5.34 46.9049 5.38667 47.1316 5.48C47.3582 5.56 47.5249 5.69333 47.6316 5.88L47.7116 6.26C47.7116 6.47333 47.6649 6.64 47.5716 6.76C47.4782 6.86667 47.3316 6.93333 47.1316 6.96C46.8649 6.86667 46.6916 6.76 46.6116 6.64C46.3316 6.17333 46.0649 5.94 45.8116 5.94C45.2516 5.94 44.8116 6.18 44.4916 6.66C44.3582 6.87333 44.2516 7.12 44.1716 7.4C44.0916 7.68 44.0516 7.96667 44.0516 8.26V11.52C44.0516 12.0133 44.1316 12.3133 44.2916 12.42L45.1916 12.68C45.2449 12.72 45.2716 12.7533 45.2716 12.78L45.2916 12.86L45.2116 13L44.9516 13.02L43.2916 12.94L41.6516 13.02L41.4116 13L41.3116 12.94L41.2916 12.84L41.3316 12.76C41.3582 12.7067 41.3849 12.68 41.4116 12.68L42.2716 12.44C42.4449 12.3467 42.5316 12.0733 42.5316 11.62V7.56C42.5316 7.25333 42.5249 7.04 42.5116 6.92C42.4982 6.78667 42.4516 6.65333 42.3716 6.52C42.2382 6.28 41.9516 6.12667 41.5116 6.06L41.3316 6.08C41.1716 6.08 41.0716 6.04667 41.0316 5.98L41.0116 5.88C41.0116 5.81333 41.0582 5.76 41.1516 5.72L42.4316 5.42L43.6316 5.16C43.6982 5.2 43.7649 5.44 43.8316 5.88L43.9516 6.98ZM52.0319 11.52L52.0119 11.62C52.0119 12.0467 52.0985 12.32 52.2719 12.44L53.1719 12.68C53.2252 12.7067 53.2519 12.7333 53.2519 12.76L53.2719 12.84L53.1719 13L52.9119 13.02L51.2719 12.94L49.6119 13.02L49.3519 13L49.2519 12.86L49.3119 12.76L49.3719 12.68L50.2519 12.42C50.4252 12.3133 50.5119 12.0133 50.5119 11.52V2.44C50.5119 1.84 50.3119 1.52 49.9119 1.48C49.5119 1.42667 49.2919 1.34667 49.2519 1.24C49.2519 1.17333 49.3519 1.10667 49.5519 1.04L51.1119 0.78L51.7919 0.62C51.9519 0.62 52.0319 0.706666 52.0319 0.88V11.52ZM59.3183 11.26L60.9383 7.3L61.0983 6.84L61.1783 6.4C61.1783 6.06667 61.0049 5.88 60.6583 5.84C60.3249 5.78667 60.1516 5.70667 60.1383 5.6C60.1383 5.48 60.2583 5.42 60.4983 5.42H60.5983L61.5583 5.48L62.2583 5.44H62.3983C62.5983 5.44 62.7049 5.49333 62.7183 5.6C62.6649 5.69333 62.6116 5.75333 62.5583 5.78L62.2383 5.9C62.1716 5.91333 62.0849 5.99333 61.9783 6.14C61.8716 6.27333 61.7249 6.56 61.5383 7L59.3183 12.36L58.0983 15.26C57.3783 16.82 56.8516 17.66 56.5183 17.78L56.2783 17.82C56.1316 17.82 56.0116 17.7733 55.9183 17.68C55.8383 17.5867 55.7983 17.4533 55.7983 17.28C55.7983 17.1467 55.8249 17.02 55.8783 16.9C55.9449 16.78 56.0849 16.6733 56.2983 16.58C56.7916 16.38 57.1716 16.0067 57.4383 15.46L57.9583 14.38L58.3983 13.3L58.4783 12.94C58.4783 12.74 58.4183 12.5 58.2983 12.22L56.0383 6.94C55.9049 6.59333 55.7649 6.32667 55.6183 6.14C55.4716 5.95333 55.3249 5.86 55.1783 5.86C54.9383 5.86 54.7849 5.79333 54.7183 5.66C54.7183 5.58 54.7516 5.52 54.8183 5.48L55.0583 5.4H55.1783L55.7983 5.44L56.2983 5.48H56.6583L57.6183 5.44H57.9783C58.3516 5.44 58.5449 5.49333 58.5583 5.6L58.4983 5.68L58.3583 5.76L57.8383 5.88C57.5849 5.96 57.4583 6.11333 57.4583 6.34L57.5783 6.82L59.3183 11.26Z" fill="#2E2E2E"/>
</svg>
