<svg width="216" height="88" viewBox="0 0 216 88" fill="none" xmlns="http://www.w3.org/2000/svg">
<g filter="url(#filter0_d_35_185)">
<rect x="25" y="15" width="166" height="38" fill="white"/>
</g>
<path d="M52.4 36.96L55.02 28.12C55.1533 27.64 55.3067 27.3933 55.48 27.38C55.6533 27.38 55.82 27.6333 55.98 28.14L58.6 36.76L60.2 31.6L60.56 30.22C60.6933 29.6467 60.76 29.2267 60.76 28.96L60.74 28.62C60.74 28.42 60.6533 28.2533 60.48 28.12C60.3333 27.9733 60.16 27.8933 59.96 27.88L59.48 27.82C59.3733 27.8067 59.3067 27.7467 59.28 27.64C59.28 27.5067 59.4267 27.44 59.72 27.44L59.84 27.42L61.5 27.48L62.7 27.44C62.8867 27.44 62.9933 27.5 63.02 27.62L62.98 27.68C62.94 27.7467 62.8333 27.8067 62.66 27.86L62.14 28C61.9 28.12 61.7133 28.3533 61.58 28.7L61.3 29.58L58.6 38.26C58.3733 38.9267 58.1467 39.26 57.92 39.26C57.7333 39.26 57.56 38.9867 57.4 38.44L54.92 30.02L52.4 38.32L52.22 38.88C52.1 39.12 51.9533 39.2467 51.78 39.26C51.58 39.26 51.42 39.1 51.3 38.78L51.18 38.38L48.2 29.06C48.12 28.7 48.0067 28.44 47.86 28.28C47.7133 28.0667 47.48 27.9333 47.16 27.88C46.96 27.88 46.8067 27.8667 46.7 27.84C46.6067 27.8133 46.56 27.74 46.56 27.62C46.56 27.5267 46.6533 27.4733 46.84 27.46H47.06L48.36 27.52L48.56 27.54L50.02 27.5L51.1 27.44H51.18C51.38 27.44 51.5 27.4733 51.54 27.54L51.56 27.64C51.4667 27.6933 51.36 27.74 51.24 27.78C51.1333 27.82 50.9133 27.8733 50.58 27.94C50.26 27.9933 50.08 28.1533 50.04 28.42L50.02 28.52C50.02 28.9067 50.1867 29.7 50.52 30.9C50.6667 31.5 51.02 32.6533 51.58 34.36L52.4 36.96ZM66.5883 34.28L66.5283 35.1C66.5283 36.14 66.8149 36.9933 67.3883 37.66C67.9083 38.2867 68.5549 38.6 69.3283 38.6C69.9949 38.6 70.5949 38.3533 71.1283 37.86L71.3083 37.64C71.3749 37.5467 71.4683 37.4933 71.5883 37.48L71.6883 37.5C71.7283 37.5267 71.7616 37.5867 71.7883 37.68C71.7883 37.7733 71.7216 37.9067 71.5883 38.08C71.4549 38.24 71.2949 38.4 71.1083 38.56C70.8283 38.76 70.4816 38.92 70.0683 39.04C69.6549 39.1733 69.2349 39.24 68.8083 39.24C67.8349 39.24 66.9816 38.9733 66.2483 38.44C65.7816 38.08 65.4216 37.64 65.1683 37.12C64.9283 36.5867 64.8083 36.0267 64.8083 35.44C64.8083 34.1467 65.2816 33.0667 66.2283 32.2C66.5749 31.8667 66.9683 31.6267 67.4083 31.48C67.8483 31.32 68.3349 31.24 68.8683 31.24C69.6016 31.24 70.2549 31.42 70.8283 31.78C71.4016 32.14 71.7949 32.6733 72.0083 33.38L72.0683 33.74L72.1083 33.94C72.1083 34.1667 71.9549 34.28 71.6483 34.28H66.5883ZM66.6883 33.78H70.2083C70.4083 33.78 70.5083 33.6467 70.5083 33.38C70.5083 33.1533 70.4483 32.8933 70.3283 32.6C70.2083 32.3067 70.0883 32.1 69.9683 31.98C69.6483 31.7267 69.2683 31.6 68.8283 31.6C68.4016 31.6 68.0416 31.6933 67.7483 31.88C67.4549 32.0533 67.2216 32.3 67.0483 32.62C66.8883 32.9267 66.7683 33.3133 66.6883 33.78ZM80.3108 33.94C80.3108 32.7933 79.7774 32.08 78.7108 31.8L78.3908 31.76L78.0908 31.74C77.3441 31.74 76.7441 32.0733 76.2908 32.74C75.8908 33.34 75.6908 34.06 75.6908 34.9L75.6708 35.26C75.6708 36.18 75.8374 36.9467 76.1708 37.56C76.5708 38.32 77.1974 38.7 78.0508 38.7C78.7174 38.7 79.2574 38.48 79.6708 38.04C80.0974 37.5867 80.3108 37 80.3108 36.28V33.94ZM80.8708 39.18C80.7774 39.18 80.6841 38.9933 80.5908 38.62L80.4708 37.86C80.0841 38.2867 79.6708 38.62 79.2308 38.86C78.7774 39.0733 78.2974 39.18 77.7908 39.18H77.2508C76.3974 39.1 75.6641 38.7467 75.0508 38.12C74.4508 37.48 74.0974 36.7133 73.9908 35.82L73.9708 35.34C73.9708 34.18 74.3508 33.2067 75.1108 32.42C75.8841 31.6333 76.7708 31.24 77.7708 31.24C78.2374 31.24 78.6774 31.3333 79.0908 31.52C79.5041 31.68 79.8974 31.9533 80.2708 32.34V28.02C80.2708 27.5933 80.0508 27.3467 79.6108 27.28C79.1708 27.2 78.9508 27.1133 78.9508 27.02C78.9508 26.9533 78.9974 26.9 79.0908 26.86L79.4308 26.82H79.7108L81.5508 26.6C81.6974 26.6 81.7841 26.68 81.8108 26.84V36.98C81.8108 37.3133 81.8641 37.6067 81.9708 37.86C82.0908 38.1 82.2574 38.24 82.4708 38.28L82.9308 38.34C83.0241 38.34 83.0974 38.3733 83.1508 38.44C83.1241 38.5333 83.1041 38.5867 83.0908 38.6C83.0774 38.6133 83.0641 38.6267 83.0508 38.64L81.9908 38.92L80.8708 39.18ZM91.4241 33.94C91.4241 32.7933 90.8907 32.08 89.8241 31.8L89.5041 31.76L89.2041 31.74C88.4574 31.74 87.8574 32.0733 87.4041 32.74C87.0041 33.34 86.8041 34.06 86.8041 34.9L86.7841 35.26C86.7841 36.18 86.9507 36.9467 87.2841 37.56C87.6841 38.32 88.3107 38.7 89.1641 38.7C89.8307 38.7 90.3707 38.48 90.7841 38.04C91.2107 37.5867 91.4241 37 91.4241 36.28V33.94ZM91.9841 39.18C91.8907 39.18 91.7974 38.9933 91.7041 38.62L91.5841 37.86C91.1974 38.2867 90.7841 38.62 90.3441 38.86C89.8907 39.0733 89.4107 39.18 88.9041 39.18H88.3641C87.5107 39.1 86.7774 38.7467 86.1641 38.12C85.5641 37.48 85.2107 36.7133 85.1041 35.82L85.0841 35.34C85.0841 34.18 85.4641 33.2067 86.2241 32.42C86.9974 31.6333 87.8841 31.24 88.8841 31.24C89.3507 31.24 89.7907 31.3333 90.2041 31.52C90.6174 31.68 91.0107 31.9533 91.3841 32.34V28.02C91.3841 27.5933 91.1641 27.3467 90.7241 27.28C90.2841 27.2 90.0641 27.1133 90.0641 27.02C90.0641 26.9533 90.1107 26.9 90.2041 26.86L90.5441 26.82H90.8241L92.6641 26.6C92.8107 26.6 92.8974 26.68 92.9241 26.84V36.98C92.9241 37.3133 92.9774 37.6067 93.0841 37.86C93.2041 38.1 93.3707 38.24 93.5841 38.28L94.0441 38.34C94.1374 38.34 94.2107 38.3733 94.2641 38.44C94.2374 38.5333 94.2174 38.5867 94.2041 38.6C94.1907 38.6133 94.1774 38.6267 94.1641 38.64L93.1041 38.92L91.9841 39.18ZM97.1173 32.84C97.1173 32.4133 96.9107 32.16 96.4973 32.08L95.9173 31.96L95.9573 31.86C95.984 31.7933 96.0707 31.7533 96.2173 31.74L96.7373 31.64L97.3773 31.48L98.2173 31.18L98.4173 31.14C98.5373 31.14 98.6107 31.22 98.6373 31.38V37.52L98.6173 37.62C98.6173 38.0467 98.704 38.32 98.8773 38.44L99.7773 38.68L99.8573 38.84L99.7773 39L99.5173 39.02L97.8773 38.94L96.2173 39.02L95.9573 39L95.8573 38.86L95.9173 38.76L95.9773 38.68L96.8573 38.42C97.0307 38.3133 97.1173 38.0133 97.1173 37.52V32.84ZM98.1373 27.02C98.244 27.0733 98.3373 27.18 98.4173 27.34C98.4973 27.46 98.5373 27.6067 98.5373 27.78L98.4773 28.14C98.3307 28.5133 98.0307 28.7 97.5773 28.7L97.4573 28.68C97.2573 28.6533 97.0773 28.5533 96.9173 28.38C96.7707 28.2067 96.6973 28.0067 96.6973 27.78L96.7773 27.44C96.8307 27.2933 96.9307 27.1733 97.0773 27.08C97.224 26.9733 97.404 26.9067 97.6173 26.88C97.8173 26.88 97.9907 26.9267 98.1373 27.02ZM104.444 37.52L104.424 37.62C104.424 38.0467 104.51 38.32 104.684 38.44L105.584 38.68C105.637 38.7067 105.664 38.7333 105.664 38.76L105.684 38.84L105.584 39L105.324 39.02L103.684 38.94L102.024 39.02L101.784 39L101.704 38.94L101.664 38.86L101.724 38.76L101.784 38.68L102.664 38.42C102.837 38.3133 102.924 38.0133 102.924 37.52V33.24C102.924 33.0267 102.917 32.8733 102.904 32.78C102.89 32.6867 102.837 32.5467 102.744 32.36C102.65 32.1733 102.45 32.08 102.144 32.08C102.024 32.08 101.93 32.0667 101.864 32.04C101.797 32 101.75 31.9667 101.724 31.94C101.697 31.9 101.684 31.8733 101.684 31.86L101.784 31.78L101.964 31.72C102.177 31.68 102.39 31.6333 102.604 31.58C102.817 31.5267 103.024 31.46 103.224 31.38L103.904 31.18C104.064 31.18 104.177 31.3 104.244 31.54C104.324 31.78 104.364 32.22 104.364 32.86C105.044 31.78 105.97 31.24 107.144 31.24L107.864 31.3C108.25 31.34 108.584 31.46 108.864 31.66C109.157 31.86 109.397 32.1333 109.584 32.48L109.704 33.04L109.744 33.62V37.52C109.744 38.0133 109.824 38.3133 109.984 38.42L110.884 38.68L110.944 38.76L110.984 38.86C110.97 38.9 110.957 38.9333 110.944 38.96C110.93 38.9733 110.917 38.9867 110.904 39L110.644 39.02L108.984 38.94L107.344 39.02L107.104 39L107.004 38.94L106.984 38.84L107.024 38.76C107.05 38.7067 107.077 38.68 107.104 38.68L107.964 38.44C108.15 38.3333 108.244 38.06 108.244 37.62V33.6C108.244 33.04 108.09 32.5933 107.784 32.26C107.49 31.9267 107.124 31.76 106.684 31.76C106.124 31.76 105.624 31.98 105.184 32.42C104.69 32.9133 104.444 33.5267 104.444 34.26V37.52ZM115.157 36.5C114.57 36.3 114.104 35.9667 113.757 35.5C113.424 35.02 113.257 34.5133 113.257 33.98C113.257 33.7533 113.29 33.5267 113.357 33.3C113.424 33.0733 113.477 32.9133 113.517 32.82C113.57 32.7267 113.657 32.6 113.777 32.44C114.057 32.04 114.417 31.74 114.857 31.54C115.31 31.34 115.817 31.24 116.377 31.24C117.31 31.24 118.097 31.4933 118.737 32C118.937 31.8667 119.11 31.76 119.257 31.68C119.417 31.5867 119.577 31.5133 119.737 31.46C120.044 31.34 120.317 31.28 120.557 31.28C120.837 31.28 121.057 31.36 121.217 31.52C121.377 31.6667 121.457 31.84 121.457 32.04C121.457 32.28 121.364 32.4467 121.177 32.54L120.917 32.62C120.81 32.62 120.637 32.52 120.397 32.32C120.21 32.1333 120.01 32.0267 119.797 32C119.57 32 119.31 32.0933 119.017 32.28C119.11 32.4267 119.19 32.5667 119.257 32.7C119.324 32.82 119.39 32.9667 119.457 33.14C119.524 33.3133 119.57 33.4667 119.597 33.6C119.624 33.7333 119.637 33.9 119.637 34.1V34.34C119.637 34.74 119.517 35.12 119.277 35.48C119.05 35.8267 118.737 36.1067 118.337 36.32C118.03 36.4667 117.657 36.58 117.217 36.66L115.817 36.74C115.497 36.74 115.177 36.8 114.857 36.92C114.537 37.0267 114.377 37.2133 114.377 37.48L114.397 37.58C114.397 37.8067 114.644 37.96 115.137 38.04L115.857 38.08L116.337 38.06C117.417 38.06 118.23 38.14 118.777 38.3C119.657 38.5667 120.217 39.1 120.457 39.9L120.537 40.34L120.577 40.72C120.577 41.2533 120.444 41.7467 120.177 42.2C119.91 42.6533 119.524 43 119.017 43.24C118.697 43.3867 118.317 43.5067 117.877 43.6C117.664 43.64 117.457 43.6733 117.257 43.7C117.057 43.7267 116.837 43.74 116.597 43.74C115.957 43.74 115.377 43.6467 114.857 43.46C114.324 43.3 113.884 43.0333 113.537 42.66C113.364 42.46 113.224 42.2467 113.117 42.02C113.064 41.9 113.024 41.78 112.997 41.66C112.97 41.5533 112.957 41.4267 112.957 41.28C112.957 40.8 113.15 40.4067 113.537 40.1L113.937 39.92L114.397 39.84C114.61 39.84 114.757 39.9133 114.837 40.06C114.824 40.1 114.804 40.1333 114.777 40.16C114.764 40.1867 114.71 40.24 114.617 40.32L114.357 40.54C114.157 40.78 114.057 41.08 114.057 41.44C114.057 41.8 114.157 42.12 114.357 42.4C114.557 42.68 114.87 42.9 115.297 43.06C115.724 43.2333 116.197 43.32 116.717 43.32C117.264 43.32 117.724 43.2467 118.097 43.1C118.484 42.9667 118.804 42.7267 119.057 42.38C119.324 42.0467 119.457 41.6867 119.457 41.3C119.457 40.9533 119.344 40.6267 119.117 40.32C118.89 40.0267 118.557 39.8333 118.117 39.74C117.69 39.66 117.19 39.62 116.617 39.62H116.117C115.424 39.62 114.87 39.5267 114.457 39.34C113.857 39.0733 113.557 38.6467 113.557 38.06C113.557 37.6467 113.724 37.2933 114.057 37C114.31 36.8133 114.677 36.6467 115.157 36.5ZM118.217 34C118.217 33.6533 118.19 33.36 118.137 33.12C118.084 32.88 117.977 32.6267 117.817 32.36C117.497 31.8 117.044 31.52 116.457 31.52C115.924 31.52 115.497 31.78 115.177 32.3C114.884 32.8467 114.737 33.4 114.737 33.96C114.737 34.2933 114.764 34.58 114.817 34.82C114.87 35.0467 114.977 35.2867 115.137 35.54C115.457 36.1 115.897 36.38 116.457 36.38C116.99 36.38 117.43 36.1067 117.777 35.56C118.07 35.08 118.217 34.56 118.217 34ZM132.881 32.98C133.081 32.5667 133.335 32.2267 133.641 31.96C133.961 31.68 134.355 31.4867 134.821 31.38L135.361 31.34C135.601 31.34 135.835 31.3867 136.061 31.48C136.288 31.56 136.455 31.6933 136.561 31.88L136.641 32.26C136.641 32.4733 136.595 32.64 136.501 32.76C136.408 32.8667 136.261 32.9333 136.061 32.96C135.795 32.8667 135.621 32.76 135.541 32.64C135.261 32.1733 134.995 31.94 134.741 31.94C134.181 31.94 133.741 32.18 133.421 32.66C133.288 32.8733 133.181 33.12 133.101 33.4C133.021 33.68 132.981 33.9667 132.981 34.26V37.52C132.981 38.0133 133.061 38.3133 133.221 38.42L134.121 38.68C134.175 38.72 134.201 38.7533 134.201 38.78L134.221 38.86L134.141 39L133.881 39.02L132.221 38.94L130.581 39.02L130.341 39L130.241 38.94L130.221 38.84L130.261 38.76C130.288 38.7067 130.315 38.68 130.341 38.68L131.201 38.44C131.375 38.3467 131.461 38.0733 131.461 37.62V33.56C131.461 33.2533 131.455 33.04 131.441 32.92C131.428 32.7867 131.381 32.6533 131.301 32.52C131.168 32.28 130.881 32.1267 130.441 32.06L130.261 32.08C130.101 32.08 130.001 32.0467 129.961 31.98L129.941 31.88C129.941 31.8133 129.988 31.76 130.081 31.72L131.361 31.42L132.561 31.16C132.628 31.2 132.695 31.44 132.761 31.88L132.881 32.98ZM139.442 32.84C139.442 32.4133 139.235 32.16 138.822 32.08L138.242 31.96L138.282 31.86C138.308 31.7933 138.395 31.7533 138.542 31.74L139.062 31.64L139.702 31.48L140.542 31.18L140.742 31.14C140.862 31.14 140.935 31.22 140.962 31.38V37.52L140.942 37.62C140.942 38.0467 141.028 38.32 141.202 38.44L142.102 38.68L142.182 38.84L142.102 39L141.842 39.02L140.202 38.94L138.542 39.02L138.282 39L138.182 38.86L138.242 38.76L138.302 38.68L139.182 38.42C139.355 38.3133 139.442 38.0133 139.442 37.52V32.84ZM140.462 27.02C140.568 27.0733 140.662 27.18 140.742 27.34C140.822 27.46 140.862 27.6067 140.862 27.78L140.802 28.14C140.655 28.5133 140.355 28.7 139.902 28.7L139.782 28.68C139.582 28.6533 139.402 28.5533 139.242 28.38C139.095 28.2067 139.022 28.0067 139.022 27.78L139.102 27.44C139.155 27.2933 139.255 27.1733 139.402 27.08C139.548 26.9733 139.728 26.9067 139.942 26.88C140.142 26.88 140.315 26.9267 140.462 27.02ZM146.768 37.52L146.748 37.62C146.748 38.0467 146.835 38.32 147.008 38.44L147.908 38.68C147.961 38.7067 147.988 38.7333 147.988 38.76L148.008 38.84L147.908 39L147.648 39.02L146.008 38.94L144.348 39.02L144.108 39L144.028 38.94L143.988 38.86L144.048 38.76L144.108 38.68L144.988 38.42C145.161 38.3133 145.248 38.0133 145.248 37.52V33.24C145.248 33.0267 145.241 32.8733 145.228 32.78C145.215 32.6867 145.161 32.5467 145.068 32.36C144.975 32.1733 144.775 32.08 144.468 32.08C144.348 32.08 144.255 32.0667 144.188 32.04C144.121 32 144.075 31.9667 144.048 31.94C144.021 31.9 144.008 31.8733 144.008 31.86L144.108 31.78L144.288 31.72C144.501 31.68 144.715 31.6333 144.928 31.58C145.141 31.5267 145.348 31.46 145.548 31.38L146.228 31.18C146.388 31.18 146.501 31.3 146.568 31.54C146.648 31.78 146.688 32.22 146.688 32.86C147.368 31.78 148.295 31.24 149.468 31.24L150.188 31.3C150.575 31.34 150.908 31.46 151.188 31.66C151.481 31.86 151.721 32.1333 151.908 32.48L152.028 33.04L152.068 33.62V37.52C152.068 38.0133 152.148 38.3133 152.308 38.42L153.208 38.68L153.268 38.76L153.308 38.86C153.295 38.9 153.281 38.9333 153.268 38.96C153.255 38.9733 153.241 38.9867 153.228 39L152.968 39.02L151.308 38.94L149.668 39.02L149.428 39L149.328 38.94L149.308 38.84L149.348 38.76C149.375 38.7067 149.401 38.68 149.428 38.68L150.288 38.44C150.475 38.3333 150.568 38.06 150.568 37.62V33.6C150.568 33.04 150.415 32.5933 150.108 32.26C149.815 31.9267 149.448 31.76 149.008 31.76C148.448 31.76 147.948 31.98 147.508 32.42C147.015 32.9133 146.768 33.5267 146.768 34.26V37.52ZM157.481 36.5C156.895 36.3 156.428 35.9667 156.081 35.5C155.748 35.02 155.581 34.5133 155.581 33.98C155.581 33.7533 155.615 33.5267 155.681 33.3C155.748 33.0733 155.801 32.9133 155.841 32.82C155.895 32.7267 155.981 32.6 156.101 32.44C156.381 32.04 156.741 31.74 157.181 31.54C157.635 31.34 158.141 31.24 158.701 31.24C159.635 31.24 160.421 31.4933 161.061 32C161.261 31.8667 161.435 31.76 161.581 31.68C161.741 31.5867 161.901 31.5133 162.061 31.46C162.368 31.34 162.641 31.28 162.881 31.28C163.161 31.28 163.381 31.36 163.541 31.52C163.701 31.6667 163.781 31.84 163.781 32.04C163.781 32.28 163.688 32.4467 163.501 32.54L163.241 32.62C163.135 32.62 162.961 32.52 162.721 32.32C162.535 32.1333 162.335 32.0267 162.121 32C161.895 32 161.635 32.0933 161.341 32.28C161.435 32.4267 161.515 32.5667 161.581 32.7C161.648 32.82 161.715 32.9667 161.781 33.14C161.848 33.3133 161.895 33.4667 161.921 33.6C161.948 33.7333 161.961 33.9 161.961 34.1V34.34C161.961 34.74 161.841 35.12 161.601 35.48C161.375 35.8267 161.061 36.1067 160.661 36.32C160.355 36.4667 159.981 36.58 159.541 36.66L158.141 36.74C157.821 36.74 157.501 36.8 157.181 36.92C156.861 37.0267 156.701 37.2133 156.701 37.48L156.721 37.58C156.721 37.8067 156.968 37.96 157.461 38.04L158.181 38.08L158.661 38.06C159.741 38.06 160.555 38.14 161.101 38.3C161.981 38.5667 162.541 39.1 162.781 39.9L162.861 40.34L162.901 40.72C162.901 41.2533 162.768 41.7467 162.501 42.2C162.235 42.6533 161.848 43 161.341 43.24C161.021 43.3867 160.641 43.5067 160.201 43.6C159.988 43.64 159.781 43.6733 159.581 43.7C159.381 43.7267 159.161 43.74 158.921 43.74C158.281 43.74 157.701 43.6467 157.181 43.46C156.648 43.3 156.208 43.0333 155.861 42.66C155.688 42.46 155.548 42.2467 155.441 42.02C155.388 41.9 155.348 41.78 155.321 41.66C155.295 41.5533 155.281 41.4267 155.281 41.28C155.281 40.8 155.475 40.4067 155.861 40.1L156.261 39.92L156.721 39.84C156.935 39.84 157.081 39.9133 157.161 40.06C157.148 40.1 157.128 40.1333 157.101 40.16C157.088 40.1867 157.035 40.24 156.941 40.32L156.681 40.54C156.481 40.78 156.381 41.08 156.381 41.44C156.381 41.8 156.481 42.12 156.681 42.4C156.881 42.68 157.195 42.9 157.621 43.06C158.048 43.2333 158.521 43.32 159.041 43.32C159.588 43.32 160.048 43.2467 160.421 43.1C160.808 42.9667 161.128 42.7267 161.381 42.38C161.648 42.0467 161.781 41.6867 161.781 41.3C161.781 40.9533 161.668 40.6267 161.441 40.32C161.215 40.0267 160.881 39.8333 160.441 39.74C160.015 39.66 159.515 39.62 158.941 39.62H158.441C157.748 39.62 157.195 39.5267 156.781 39.34C156.181 39.0733 155.881 38.6467 155.881 38.06C155.881 37.6467 156.048 37.2933 156.381 37C156.635 36.8133 157.001 36.6467 157.481 36.5ZM160.541 34C160.541 33.6533 160.515 33.36 160.461 33.12C160.408 32.88 160.301 32.6267 160.141 32.36C159.821 31.8 159.368 31.52 158.781 31.52C158.248 31.52 157.821 31.78 157.501 32.3C157.208 32.8467 157.061 33.4 157.061 33.96C157.061 34.2933 157.088 34.58 157.141 34.82C157.195 35.0467 157.301 35.2867 157.461 35.54C157.781 36.1 158.221 36.38 158.781 36.38C159.315 36.38 159.755 36.1067 160.101 35.56C160.395 35.08 160.541 34.56 160.541 34ZM165.908 36.8L165.948 36.72L166.028 36.6C166.108 36.6 166.168 36.6733 166.208 36.82L166.308 37.14C166.468 37.6333 166.721 38.04 167.068 38.36C167.414 38.68 167.821 38.84 168.288 38.84C168.688 38.84 169.048 38.72 169.368 38.48C169.701 38.2267 169.868 37.9133 169.868 37.54V37.44C169.868 36.9467 169.428 36.46 168.548 35.98L167.468 35.42C167.361 35.3667 167.228 35.2867 167.068 35.18C166.908 35.0733 166.754 34.94 166.608 34.78C166.341 34.5 166.154 34.1933 166.048 33.86L165.968 33.32C165.968 32.9067 166.088 32.5 166.328 32.1C166.528 31.7933 166.788 31.5733 167.108 31.44C167.428 31.3067 167.761 31.24 168.108 31.24C168.361 31.24 168.548 31.2467 168.668 31.26C168.788 31.2733 168.968 31.32 169.208 31.4L169.548 31.48L169.888 31.42L170.228 31.24C170.254 31.2667 170.281 31.3067 170.308 31.36C170.334 31.4133 170.348 31.4933 170.348 31.6L170.368 32.1L170.348 33.2C170.334 33.28 170.321 33.3267 170.308 33.34L170.248 33.4C170.154 33.3467 170.094 33.3 170.068 33.26L169.928 33.02C169.768 32.6333 169.534 32.3 169.228 32.02C168.921 31.74 168.574 31.6 168.188 31.6C167.854 31.6 167.574 31.6933 167.348 31.88C167.134 32.0533 167.028 32.2933 167.028 32.6V32.78C167.094 33.1267 167.408 33.4733 167.968 33.82L169.308 34.54C169.468 34.6333 169.654 34.7467 169.868 34.88C170.081 35.0133 170.221 35.1133 170.288 35.18C170.554 35.4467 170.748 35.7867 170.868 36.2L170.928 36.82C170.928 37.0067 170.914 37.1533 170.888 37.26C170.888 37.4333 170.854 37.5933 170.788 37.74C170.654 38.2067 170.354 38.5733 169.888 38.84C169.421 39.0933 168.921 39.22 168.388 39.22L167.748 39.18C167.601 39.1533 167.414 39.0933 167.188 39C166.961 38.9067 166.774 38.8467 166.628 38.82C166.548 38.82 166.474 38.84 166.408 38.88L166.228 39L166.008 39.08C165.968 39.0533 165.934 39.0067 165.908 38.94V36.8Z" fill="#D2B574"/>
<defs>
<filter id="filter0_d_35_185" x="0" y="0" width="216" height="88" filterUnits="userSpaceOnUse" color-interpolation-filters="sRGB">
<feFlood flood-opacity="0" result="BackgroundImageFix"/>
<feColorMatrix in="SourceAlpha" type="matrix" values="0 0 0 0 0 0 0 0 0 0 0 0 0 0 0 0 0 0 127 0" result="hardAlpha"/>
<feOffset dy="10"/>
<feGaussianBlur stdDeviation="12.5"/>
<feComposite in2="hardAlpha" operator="out"/>
<feColorMatrix type="matrix" values="0 0 0 0 0.823529 0 0 0 0 0.709804 0 0 0 0 0.454902 0 0 0 0.1 0"/>
<feBlend mode="normal" in2="BackgroundImageFix" result="effect1_dropShadow_35_185"/>
<feBlend mode="normal" in="SourceGraphic" in2="effect1_dropShadow_35_185" result="shape"/>
</filter>
</defs>
</svg>
