<svg width="82" height="14" viewBox="0 0 82 14" fill="none" xmlns="http://www.w3.org/2000/svg">
<path d="M3.56 10.24L3.54 10.4C3.54 10.96 3.62 11.4133 3.78 11.76C3.95333 12.0933 4.28667 12.34 4.78 12.5L5.2 12.58L5.64 12.62C5.96 12.62 6.30667 12.58 6.68 12.5C7.05333 12.42 7.37333 12.3133 7.64 12.18C8.33333 11.82 8.84 11.1933 9.16 10.3C9.38667 9.62 9.5 8.79333 9.5 7.82V7.64C9.5 5.76 9.17333 4.35333 8.52 3.42C7.76 2.34 6.51333 1.8 4.78 1.8H4.58C4.18 1.8 3.90667 1.86667 3.76 2C3.62667 2.13333 3.56 2.38667 3.56 2.76V10.24ZM1.74 11.06V3.24C1.74 2.81333 1.70667 2.52667 1.64 2.38C1.54667 2.1 1.34 1.91333 1.02 1.82L0.52 1.76C0.2 1.70667 0.0333334 1.63333 0.0200001 1.54C0.06 1.46 0.113333 1.41333 0.18 1.4L0.54 1.38L1.54 1.42L2.28 1.44L4.98 1.38C5.60667 1.38 6.23333 1.42 6.86 1.5C8.38 1.78 9.56667 2.47333 10.42 3.58C11.2067 4.63333 11.6 5.90667 11.6 7.4L11.58 7.82L11.5 8.6C11.3667 9.58667 10.9933 10.4533 10.38 11.2C9.76667 11.9333 8.97333 12.4467 8 12.74C7.88 12.7667 7.70667 12.8067 7.48 12.86C7.25333 12.9 7.01333 12.9333 6.76 12.96L5.38 13.02L3.9 13L2.04 12.96L0.96 12.98L0.4 13.02L0.18 13L0.08 12.92L0.0600001 12.84L0.1 12.76C0.14 12.7067 0.173333 12.6733 0.2 12.66L0.62 12.58C0.86 12.5533 1.02667 12.52 1.12 12.48C1.36 12.4 1.52 12.2333 1.6 11.98C1.69333 11.7267 1.74 11.42 1.74 11.06ZM14.3556 6.84C14.3556 6.41333 14.149 6.16 13.7356 6.08L13.1556 5.96L13.1956 5.86C13.2223 5.79333 13.309 5.75333 13.4556 5.74L13.9756 5.64L14.6156 5.48L15.4556 5.18L15.6556 5.14C15.7756 5.14 15.849 5.22 15.8756 5.38V11.52L15.8556 11.62C15.8556 12.0467 15.9423 12.32 16.1156 12.44L17.0156 12.68L17.0956 12.84L17.0156 13L16.7556 13.02L15.1156 12.94L13.4556 13.02L13.1956 13L13.0956 12.86L13.1556 12.76L13.2156 12.68L14.0956 12.42C14.269 12.3133 14.3556 12.0133 14.3556 11.52V6.84ZM15.3756 1.02C15.4823 1.07333 15.5756 1.18 15.6556 1.34C15.7356 1.46 15.7756 1.60667 15.7756 1.78L15.7156 2.14C15.569 2.51333 15.269 2.7 14.8156 2.7L14.6956 2.68C14.4956 2.65333 14.3156 2.55333 14.1556 2.38C14.009 2.20667 13.9356 2.00667 13.9356 1.78L14.0156 1.44C14.069 1.29333 14.169 1.17333 14.3156 1.08C14.4623 0.973333 14.6423 0.906666 14.8556 0.88C15.0556 0.88 15.229 0.926666 15.3756 1.02ZM23.602 12.04C22.7487 12.8133 21.782 13.2 20.702 13.2H20.622C20.1554 13.2 19.762 13.0867 19.442 12.86C19.122 12.6333 18.942 12.2933 18.902 11.84L18.882 11.64C18.882 11.1467 19.0754 10.7067 19.462 10.32C19.7687 10 20.1887 9.72 20.722 9.48C21.6954 9.04 22.6687 8.64 23.642 8.28L23.662 7.28L23.602 6.54C23.5887 6.35333 23.5154 6.18667 23.382 6.04C23.2487 5.89333 23.0554 5.78 22.802 5.7C22.5487 5.62 22.282 5.58 22.002 5.58L21.662 5.6C21.022 5.68 20.6354 5.96667 20.502 6.46C20.4087 6.92667 20.242 7.2 20.002 7.28L19.742 7.32C19.5554 7.32 19.422 7.27333 19.342 7.18C19.262 7.07333 19.2087 6.92 19.182 6.72C19.182 6.41333 19.3154 6.14667 19.582 5.92C19.862 5.69333 20.222 5.52 20.662 5.4C21.1154 5.28 21.562 5.22 22.002 5.22C22.202 5.22 22.402 5.22 22.602 5.22C22.7887 5.26 22.9887 5.29333 23.202 5.32C23.4154 5.34667 23.662 5.40667 23.942 5.5C24.7154 5.78 25.102 6.35333 25.102 7.22V11.58C25.102 11.8333 25.1487 12.06 25.242 12.26C25.3487 12.4467 25.4954 12.54 25.682 12.54L26.042 12.4L26.282 12.24L26.422 12.2C26.462 12.2267 26.4954 12.2733 26.522 12.34C26.522 12.5667 26.382 12.7667 26.102 12.94C25.822 13.1133 25.4954 13.2 25.122 13.2C24.762 13.2 24.442 13.1133 24.162 12.94C23.882 12.7533 23.6954 12.4533 23.602 12.04ZM23.642 8.66C22.962 8.91333 22.442 9.14 22.082 9.34C21.482 9.66 21.042 10.02 20.762 10.42C20.5754 10.7133 20.482 11.02 20.482 11.34C20.482 11.82 20.6487 12.1667 20.982 12.38C21.1687 12.5 21.3887 12.56 21.642 12.56C22.1087 12.56 22.5554 12.4067 22.982 12.1C23.422 11.7933 23.642 11.4467 23.642 11.06V8.66ZM31.0156 6.76C31.309 6.28 31.6556 5.91333 32.0556 5.66C32.5223 5.36667 33.0023 5.22 33.4956 5.22H33.7756C34.349 5.22 34.8156 5.33333 35.1756 5.56C35.5356 5.77333 35.8156 6.16 36.0156 6.72C36.3356 6.25333 36.729 5.89333 37.1956 5.64C37.6756 5.37333 38.1956 5.24 38.7556 5.24C39.0356 5.24 39.229 5.25333 39.3356 5.28C40.0023 5.4 40.4956 5.66667 40.8156 6.08C41.069 6.46667 41.1956 7.01333 41.1956 7.72V11.52C41.1956 12.0133 41.2756 12.3133 41.4356 12.42L42.3356 12.68C42.389 12.72 42.4156 12.7533 42.4156 12.78L42.4356 12.86L42.3556 13L42.0956 13.02L40.4356 12.94L38.7756 13.02L38.5356 13L38.4556 12.94L38.4356 12.84L38.5356 12.68L39.4156 12.44C39.589 12.3467 39.6756 12.0733 39.6756 11.62V7.48C39.6756 6.97333 39.5556 6.56667 39.3156 6.26C39.0756 5.94 38.6956 5.78 38.1756 5.78C37.5223 5.78 37.0223 6.03333 36.6756 6.54C36.329 7.03333 36.1556 7.61333 36.1556 8.28V11.62C36.1556 12.0467 36.2423 12.32 36.4156 12.44C36.7223 12.4933 37.009 12.5733 37.2756 12.68C37.329 12.72 37.3556 12.7533 37.3556 12.78L37.3956 12.86L37.2956 13L37.0356 13.02L35.3956 12.94L33.7356 13.02L33.4956 13L33.4156 12.94L33.3956 12.86L33.4356 12.76C33.4623 12.7067 33.489 12.68 33.5156 12.68L34.3956 12.42C34.569 12.3133 34.6556 12.0133 34.6556 11.52V7.48C34.6556 6.97333 34.529 6.56667 34.2756 6.26C34.0356 5.94 33.6623 5.78 33.1556 5.78C32.5156 5.78 32.009 6.02667 31.6356 6.52C31.289 7.01333 31.1156 7.6 31.1156 8.28V11.52L31.0956 11.62C31.0956 12.0467 31.1823 12.32 31.3556 12.44L32.2556 12.68C32.309 12.7067 32.3356 12.7333 32.3356 12.76L32.3556 12.84L32.2556 13L31.9956 13.02L30.3556 12.94L28.6956 13.02L28.4556 13L28.3756 12.94L28.3356 12.86L28.3956 12.76L28.4556 12.68L29.3356 12.42C29.509 12.3133 29.5956 12.0133 29.5956 11.52V7.24C29.5956 7.02667 29.589 6.87333 29.5756 6.78C29.5623 6.68667 29.509 6.54667 29.4156 6.36C29.3223 6.17333 29.1223 6.08 28.8156 6.08C28.6956 6.08 28.6023 6.06667 28.5356 6.04C28.469 6 28.4223 5.96667 28.3956 5.94C28.369 5.9 28.3556 5.87333 28.3556 5.86L28.4556 5.78L28.7156 5.7L29.7956 5.42L30.6956 5.18C30.8156 5.18 30.8956 5.38 30.9356 5.78L31.0156 6.76ZM48.4731 5.22C49.5265 5.22 50.4531 5.60667 51.2531 6.38C52.0665 7.14 52.4731 8.06667 52.4731 9.16C52.4731 10.28 52.0665 11.24 51.2531 12.04C50.4398 12.8267 49.4731 13.22 48.3531 13.22C47.2065 13.22 46.2331 12.8467 45.4331 12.1C44.6465 11.34 44.2531 10.3933 44.2531 9.26C44.2531 8.1 44.6665 7.14 45.4931 6.38C46.3198 5.60667 47.3131 5.22 48.4731 5.22ZM47.8331 5.6C47.1665 5.78667 46.6665 6.26 46.3331 7.02C46.0531 7.64667 45.9131 8.39333 45.9131 9.26L45.9731 10.02L46.0531 10.62C46.1865 11.2867 46.4531 11.84 46.8531 12.28C47.2665 12.6933 47.7531 12.9 48.3131 12.9L48.6731 12.86L49.1131 12.76C49.7131 12.56 50.1598 12.1067 50.4531 11.4C50.6798 10.8267 50.7931 10.14 50.7931 9.34V8.82C50.7931 8.5 50.7865 8.26667 50.7731 8.12C50.7598 7.96 50.7131 7.74667 50.6331 7.48C50.5398 7.06667 50.3598 6.7 50.0931 6.38C49.6531 5.83333 49.0665 5.56 48.3331 5.56L47.8331 5.6ZM57.0531 11.52L57.0331 11.62C57.0331 12.0467 57.1198 12.32 57.2931 12.44L58.1931 12.68C58.2465 12.7067 58.2731 12.7333 58.2731 12.76L58.2931 12.84L58.1931 13L57.9331 13.02L56.2931 12.94L54.6331 13.02L54.3931 13L54.3131 12.94L54.2731 12.86L54.3331 12.76L54.3931 12.68L55.2731 12.42C55.4465 12.3133 55.5331 12.0133 55.5331 11.52V7.24C55.5331 7.02667 55.5265 6.87333 55.5131 6.78C55.4998 6.68667 55.4465 6.54667 55.3531 6.36C55.2598 6.17333 55.0598 6.08 54.7531 6.08C54.6331 6.08 54.5398 6.06667 54.4731 6.04C54.4065 6 54.3598 5.96667 54.3331 5.94C54.3065 5.9 54.2931 5.87333 54.2931 5.86L54.3931 5.78L54.5731 5.72C54.7865 5.68 54.9998 5.63333 55.2131 5.58C55.4265 5.52667 55.6331 5.46 55.8331 5.38L56.5131 5.18C56.6731 5.18 56.7865 5.3 56.8531 5.54C56.9331 5.78 56.9731 6.22 56.9731 6.86C57.6531 5.78 58.5798 5.24 59.7531 5.24L60.4731 5.3C60.8598 5.34 61.1931 5.46 61.4731 5.66C61.7665 5.86 62.0065 6.13333 62.1931 6.48L62.3131 7.04L62.3531 7.62V11.52C62.3531 12.0133 62.4331 12.3133 62.5931 12.42L63.4931 12.68L63.5531 12.76L63.5931 12.86C63.5798 12.9 63.5665 12.9333 63.5531 12.96C63.5398 12.9733 63.5265 12.9867 63.5131 13L63.2531 13.02L61.5931 12.94L59.9531 13.02L59.7131 13L59.6131 12.94L59.5931 12.84L59.6331 12.76C59.6598 12.7067 59.6865 12.68 59.7131 12.68L60.5731 12.44C60.7598 12.3333 60.8531 12.06 60.8531 11.62V7.6C60.8531 7.04 60.6998 6.59333 60.3931 6.26C60.0998 5.92667 59.7331 5.76 59.2931 5.76C58.7331 5.76 58.2331 5.98 57.7931 6.42C57.2998 6.91333 57.0531 7.52667 57.0531 8.26V11.52ZM71.8264 7.94C71.8264 6.79333 71.2931 6.08 70.2264 5.8L69.9064 5.76L69.6064 5.74C68.8597 5.74 68.2597 6.07333 67.8064 6.74C67.4064 7.34 67.2064 8.06 67.2064 8.9L67.1864 9.26C67.1864 10.18 67.3531 10.9467 67.6864 11.56C68.0864 12.32 68.7131 12.7 69.5664 12.7C70.2331 12.7 70.7731 12.48 71.1864 12.04C71.6131 11.5867 71.8264 11 71.8264 10.28V7.94ZM72.3864 13.18C72.2931 13.18 72.1997 12.9933 72.1064 12.62L71.9864 11.86C71.5997 12.2867 71.1864 12.62 70.7464 12.86C70.2931 13.0733 69.8131 13.18 69.3064 13.18H68.7664C67.9131 13.1 67.1797 12.7467 66.5664 12.12C65.9664 11.48 65.6131 10.7133 65.5064 9.82L65.4864 9.34C65.4864 8.18 65.8664 7.20667 66.6264 6.42C67.3997 5.63333 68.2864 5.24 69.2864 5.24C69.7531 5.24 70.1931 5.33333 70.6064 5.52C71.0197 5.68 71.4131 5.95333 71.7864 6.34V2.02C71.7864 1.59333 71.5664 1.34667 71.1264 1.28C70.6864 1.2 70.4664 1.11333 70.4664 1.02C70.4664 0.953333 70.5131 0.899999 70.6064 0.859999L70.9464 0.819999H71.2264L73.0664 0.6C73.2131 0.6 73.2997 0.68 73.3264 0.839999V10.98C73.3264 11.3133 73.3797 11.6067 73.4864 11.86C73.6064 12.1 73.7731 12.24 73.9864 12.28L74.4464 12.34C74.5397 12.34 74.6131 12.3733 74.6664 12.44C74.6397 12.5333 74.6197 12.5867 74.6064 12.6C74.5931 12.6133 74.5797 12.6267 74.5664 12.64L73.5064 12.92L72.3864 13.18ZM76.7397 10.8L76.7797 10.72L76.8597 10.6C76.9397 10.6 76.9997 10.6733 77.0397 10.82L77.1397 11.14C77.2997 11.6333 77.553 12.04 77.8997 12.36C78.2464 12.68 78.653 12.84 79.1197 12.84C79.5197 12.84 79.8797 12.72 80.1997 12.48C80.533 12.2267 80.6997 11.9133 80.6997 11.54V11.44C80.6997 10.9467 80.2597 10.46 79.3797 9.98L78.2997 9.42C78.193 9.36667 78.0597 9.28667 77.8997 9.18C77.7397 9.07333 77.5864 8.94 77.4397 8.78C77.173 8.5 76.9864 8.19333 76.8797 7.86L76.7997 7.32C76.7997 6.90667 76.9197 6.5 77.1597 6.1C77.3597 5.79333 77.6197 5.57333 77.9397 5.44C78.2597 5.30667 78.593 5.24 78.9397 5.24C79.193 5.24 79.3797 5.24667 79.4997 5.26C79.6197 5.27333 79.7997 5.32 80.0397 5.4L80.3797 5.48L80.7197 5.42L81.0597 5.24C81.0864 5.26667 81.113 5.30667 81.1397 5.36C81.1664 5.41333 81.1797 5.49333 81.1797 5.6L81.1997 6.1L81.1797 7.2C81.1664 7.28 81.153 7.32667 81.1397 7.34L81.0797 7.4C80.9864 7.34667 80.9264 7.3 80.8997 7.26L80.7597 7.02C80.5997 6.63333 80.3664 6.3 80.0597 6.02C79.753 5.74 79.4064 5.6 79.0197 5.6C78.6864 5.6 78.4064 5.69333 78.1797 5.88C77.9664 6.05333 77.8597 6.29333 77.8597 6.6V6.78C77.9264 7.12667 78.2397 7.47333 78.7997 7.82L80.1397 8.54C80.2997 8.63333 80.4864 8.74667 80.6997 8.88C80.913 9.01333 81.053 9.11333 81.1197 9.18C81.3864 9.44667 81.5797 9.78667 81.6997 10.2L81.7597 10.82C81.7597 11.0067 81.7464 11.1533 81.7197 11.26C81.7197 11.4333 81.6864 11.5933 81.6197 11.74C81.4864 12.2067 81.1864 12.5733 80.7197 12.84C80.253 13.0933 79.753 13.22 79.2197 13.22L78.5797 13.18C78.433 13.1533 78.2464 13.0933 78.0197 13C77.793 12.9067 77.6064 12.8467 77.4597 12.82C77.3797 12.82 77.3064 12.84 77.2397 12.88L77.0597 13L76.8397 13.08C76.7997 13.0533 76.7664 13.0067 76.7397 12.94V10.8Z" fill="#2E2E2E"/>
</svg>
