<svg width="128" height="18" viewBox="0 0 128 18" fill="none" xmlns="http://www.w3.org/2000/svg">
<path d="M1.8 10.78V2.5C1.68 2.27333 1.52 2.12 1.32 2.04C1.13333 1.96 0.866667 1.88667 0.52 1.82C0.4 1.82 0.293333 1.8 0.2 1.76C0.106667 1.70667 0.0533334 1.64667 0.04 1.58L0.2 1.42H0.46L2.58 1.46L3 1.44H3.1C3.32667 1.44 3.47333 1.47333 3.54 1.54L3.74 1.88L7.32 10.32L11 1.74C11.08 1.58 11.2267 1.48 11.44 1.44H11.64L12.72 1.46H12.94L13.84 1.4C14.28 1.4 14.5 1.47333 14.5 1.62C14.4467 1.66 14.4 1.68667 14.36 1.7C14.2267 1.76667 14.02 1.83333 13.74 1.9C13.4733 1.95333 13.26 2.06 13.1 2.22C12.9533 2.36667 12.8533 2.55333 12.8 2.78L12.72 3.6V11.06C12.72 11.9 12.8933 12.3667 13.24 12.46L14.2 12.68L14.28 12.82C14.28 12.94 14.2133 13 14.08 13H13.82L11.86 12.94L9.76 13H9.42C9.35333 12.9867 9.31333 12.9733 9.3 12.96L9.26 12.88C9.26 12.76 9.34 12.6867 9.5 12.66C10.0867 12.58 10.4733 12.4467 10.66 12.26C10.86 12.06 10.96 11.66 10.96 11.06V3.1L6.88 12.66C6.8 12.8333 6.71333 12.9267 6.62 12.94L6.52 12.88L6.42 12.74L2.32 3V10.8L2.3 10.92C2.3 11.24 2.32 11.5 2.36 11.7C2.41333 11.9 2.54 12.1 2.74 12.3C2.92667 12.4467 3.14 12.54 3.38 12.58C3.58 12.58 3.74667 12.62 3.88 12.7L3.94 12.84L3.88 12.98C3.8 13.02 3.64667 13.04 3.42 13.04L2.82 13L2.38 12.96L1.66 13L0.9 13.04L0.3 12.98L0.18 12.92L0.16 12.84L0.3 12.68L0.94 12.52C1.18 12.4533 1.36 12.34 1.48 12.18C1.61333 12.02 1.7 11.82 1.74 11.58L1.8 10.78ZM18.1039 8.28L18.0439 9.1C18.0439 10.14 18.3306 10.9933 18.9039 11.66C19.4239 12.2867 20.0706 12.6 20.8439 12.6C21.5106 12.6 22.1106 12.3533 22.6439 11.86L22.8239 11.64C22.8906 11.5467 22.9839 11.4933 23.1039 11.48L23.2039 11.5C23.2439 11.5267 23.2772 11.5867 23.3039 11.68C23.3039 11.7733 23.2372 11.9067 23.1039 12.08C22.9706 12.24 22.8106 12.4 22.6239 12.56C22.3439 12.76 21.9972 12.92 21.5839 13.04C21.1706 13.1733 20.7506 13.24 20.3239 13.24C19.3506 13.24 18.4972 12.9733 17.7639 12.44C17.2972 12.08 16.9372 11.64 16.6839 11.12C16.4439 10.5867 16.3239 10.0267 16.3239 9.44C16.3239 8.14667 16.7972 7.06667 17.7439 6.2C18.0906 5.86667 18.4839 5.62667 18.9239 5.48C19.3639 5.32 19.8506 5.24 20.3839 5.24C21.1172 5.24 21.7706 5.42 22.3439 5.78C22.9172 6.14 23.3106 6.67333 23.5239 7.38L23.5839 7.74L23.6239 7.94C23.6239 8.16667 23.4706 8.28 23.1639 8.28H18.1039ZM18.2039 7.78H21.7239C21.9239 7.78 22.0239 7.64667 22.0239 7.38C22.0239 7.15333 21.9639 6.89333 21.8439 6.6C21.7239 6.30667 21.6039 6.1 21.4839 5.98C21.1639 5.72667 20.7839 5.6 20.3439 5.6C19.9172 5.6 19.5572 5.69333 19.2639 5.88C18.9706 6.05333 18.7372 6.3 18.5639 6.62C18.4039 6.92667 18.2839 7.31333 18.2039 7.78ZM28.0664 6.76C28.3597 6.28 28.7064 5.91333 29.1064 5.66C29.5731 5.36667 30.0531 5.22 30.5464 5.22H30.8264C31.3997 5.22 31.8664 5.33333 32.2264 5.56C32.5864 5.77333 32.8664 6.16 33.0664 6.72C33.3864 6.25333 33.7797 5.89333 34.2464 5.64C34.7264 5.37333 35.2464 5.24 35.8064 5.24C36.0864 5.24 36.2797 5.25333 36.3864 5.28C37.0531 5.4 37.5464 5.66667 37.8664 6.08C38.1197 6.46667 38.2464 7.01333 38.2464 7.72V11.52C38.2464 12.0133 38.3264 12.3133 38.4864 12.42L39.3864 12.68C39.4397 12.72 39.4664 12.7533 39.4664 12.78L39.4864 12.86L39.4064 13L39.1464 13.02L37.4864 12.94L35.8264 13.02L35.5864 13L35.5064 12.94L35.4864 12.84L35.5864 12.68L36.4664 12.44C36.6397 12.3467 36.7264 12.0733 36.7264 11.62V7.48C36.7264 6.97333 36.6064 6.56667 36.3664 6.26C36.1264 5.94 35.7464 5.78 35.2264 5.78C34.5731 5.78 34.0731 6.03333 33.7264 6.54C33.3797 7.03333 33.2064 7.61333 33.2064 8.28V11.62C33.2064 12.0467 33.2931 12.32 33.4664 12.44C33.7731 12.4933 34.0597 12.5733 34.3264 12.68C34.3797 12.72 34.4064 12.7533 34.4064 12.78L34.4464 12.86L34.3464 13L34.0864 13.02L32.4464 12.94L30.7864 13.02L30.5464 13L30.4664 12.94L30.4464 12.86L30.4864 12.76C30.5131 12.7067 30.5397 12.68 30.5664 12.68L31.4464 12.42C31.6197 12.3133 31.7064 12.0133 31.7064 11.52V7.48C31.7064 6.97333 31.5797 6.56667 31.3264 6.26C31.0864 5.94 30.7131 5.78 30.2064 5.78C29.5664 5.78 29.0597 6.02667 28.6864 6.52C28.3397 7.01333 28.1664 7.6 28.1664 8.28V11.52L28.1464 11.62C28.1464 12.0467 28.2331 12.32 28.4064 12.44L29.3064 12.68C29.3597 12.7067 29.3864 12.7333 29.3864 12.76L29.4064 12.84L29.3064 13L29.0464 13.02L27.4064 12.94L25.7464 13.02L25.5064 13L25.4264 12.94L25.3864 12.86L25.4464 12.76L25.5064 12.68L26.3864 12.42C26.5597 12.3133 26.6464 12.0133 26.6464 11.52V7.24C26.6464 7.02667 26.6397 6.87333 26.6264 6.78C26.6131 6.68667 26.5597 6.54667 26.4664 6.36C26.3731 6.17333 26.1731 6.08 25.8664 6.08C25.7464 6.08 25.6531 6.06667 25.5864 6.04C25.5197 6 25.4731 5.96667 25.4464 5.94C25.4197 5.9 25.4064 5.87333 25.4064 5.86L25.5064 5.78L25.7664 5.7L26.8464 5.42L27.7464 5.18C27.8664 5.18 27.9464 5.38 27.9864 5.78L28.0664 6.76ZM45.5239 5.22C46.5772 5.22 47.5039 5.60667 48.3039 6.38C49.1172 7.14 49.5239 8.06667 49.5239 9.16C49.5239 10.28 49.1172 11.24 48.3039 12.04C47.4906 12.8267 46.5239 13.22 45.4039 13.22C44.2572 13.22 43.2839 12.8467 42.4839 12.1C41.6972 11.34 41.3039 10.3933 41.3039 9.26C41.3039 8.1 41.7172 7.14 42.5439 6.38C43.3706 5.60667 44.3639 5.22 45.5239 5.22ZM44.8839 5.6C44.2172 5.78667 43.7172 6.26 43.3839 7.02C43.1039 7.64667 42.9639 8.39333 42.9639 9.26L43.0239 10.02L43.1039 10.62C43.2372 11.2867 43.5039 11.84 43.9039 12.28C44.3172 12.6933 44.8039 12.9 45.3639 12.9L45.7239 12.86L46.1639 12.76C46.7639 12.56 47.2106 12.1067 47.5039 11.4C47.7306 10.8267 47.8439 10.14 47.8439 9.34V8.82C47.8439 8.5 47.8372 8.26667 47.8239 8.12C47.8106 7.96 47.7639 7.74667 47.6839 7.48C47.5906 7.06667 47.4106 6.7 47.1439 6.38C46.7039 5.83333 46.1172 5.56 45.3839 5.56L44.8839 5.6ZM52.3439 6.84C52.3439 6.41333 52.1372 6.16 51.7239 6.08L51.1439 5.96L51.1839 5.86C51.2106 5.79333 51.2972 5.75333 51.4439 5.74L51.9639 5.64L52.6039 5.48L53.4439 5.18L53.6439 5.14C53.7639 5.14 53.8372 5.22 53.8639 5.38V11.52L53.8439 11.62C53.8439 12.0467 53.9306 12.32 54.1039 12.44L55.0039 12.68L55.0839 12.84L55.0039 13L54.7439 13.02L53.1039 12.94L51.4439 13.02L51.1839 13L51.0839 12.86L51.1439 12.76L51.2039 12.68L52.0839 12.42C52.2572 12.3133 52.3439 12.0133 52.3439 11.52V6.84ZM53.3639 1.02C53.4706 1.07333 53.5639 1.18 53.6439 1.34C53.7239 1.46 53.7639 1.60667 53.7639 1.78L53.7039 2.14C53.5572 2.51333 53.2572 2.7 52.8039 2.7L52.6839 2.68C52.4839 2.65333 52.3039 2.55333 52.1439 2.38C51.9972 2.20667 51.9239 2.00667 51.9239 1.78L52.0039 1.44C52.0572 1.29333 52.1572 1.17333 52.3039 1.08C52.4506 0.973333 52.6306 0.906666 52.8439 0.88C53.0439 0.88 53.2172 0.926666 53.3639 1.02ZM59.6703 6.98C59.8703 6.56667 60.1236 6.22667 60.4303 5.96C60.7503 5.68 61.1436 5.48667 61.6103 5.38L62.1503 5.34C62.3903 5.34 62.6236 5.38667 62.8503 5.48C63.077 5.56 63.2436 5.69333 63.3503 5.88L63.4303 6.26C63.4303 6.47333 63.3836 6.64 63.2903 6.76C63.197 6.86667 63.0503 6.93333 62.8503 6.96C62.5836 6.86667 62.4103 6.76 62.3303 6.64C62.0503 6.17333 61.7836 5.94 61.5303 5.94C60.9703 5.94 60.5303 6.18 60.2103 6.66C60.077 6.87333 59.9703 7.12 59.8903 7.4C59.8103 7.68 59.7703 7.96667 59.7703 8.26V11.52C59.7703 12.0133 59.8503 12.3133 60.0103 12.42L60.9103 12.68C60.9636 12.72 60.9903 12.7533 60.9903 12.78L61.0103 12.86L60.9303 13L60.6703 13.02L59.0103 12.94L57.3703 13.02L57.1303 13L57.0303 12.94L57.0103 12.84L57.0503 12.76C57.077 12.7067 57.1036 12.68 57.1303 12.68L57.9903 12.44C58.1636 12.3467 58.2503 12.0733 58.2503 11.62V7.56C58.2503 7.25333 58.2436 7.04 58.2303 6.92C58.217 6.78667 58.1703 6.65333 58.0903 6.52C57.957 6.28 57.6703 6.12667 57.2303 6.06L57.0503 6.08C56.8903 6.08 56.7903 6.04667 56.7503 5.98L56.7303 5.88C56.7303 5.81333 56.777 5.76 56.8703 5.72L58.1503 5.42L59.3503 5.16C59.417 5.2 59.4836 5.44 59.5503 5.88L59.6703 6.98ZM66.9906 8.28L66.9306 9.1C66.9306 10.14 67.2173 10.9933 67.7906 11.66C68.3106 12.2867 68.9573 12.6 69.7306 12.6C70.3973 12.6 70.9973 12.3533 71.5306 11.86L71.7106 11.64C71.7773 11.5467 71.8706 11.4933 71.9906 11.48L72.0906 11.5C72.1306 11.5267 72.164 11.5867 72.1906 11.68C72.1906 11.7733 72.124 11.9067 71.9906 12.08C71.8573 12.24 71.6973 12.4 71.5106 12.56C71.2306 12.76 70.884 12.92 70.4706 13.04C70.0573 13.1733 69.6373 13.24 69.2106 13.24C68.2373 13.24 67.384 12.9733 66.6506 12.44C66.184 12.08 65.824 11.64 65.5706 11.12C65.3306 10.5867 65.2106 10.0267 65.2106 9.44C65.2106 8.14667 65.684 7.06667 66.6306 6.2C66.9773 5.86667 67.3706 5.62667 67.8106 5.48C68.2506 5.32 68.7373 5.24 69.2706 5.24C70.004 5.24 70.6573 5.42 71.2306 5.78C71.804 6.14 72.1973 6.67333 72.4106 7.38L72.4706 7.74L72.5106 7.94C72.5106 8.16667 72.3573 8.28 72.0506 8.28H66.9906ZM67.0906 7.78H70.6106C70.8106 7.78 70.9106 7.64667 70.9106 7.38C70.9106 7.15333 70.8506 6.89333 70.7306 6.6C70.6106 6.30667 70.4906 6.1 70.3706 5.98C70.0506 5.72667 69.6706 5.6 69.2306 5.6C68.804 5.6 68.444 5.69333 68.1506 5.88C67.8573 6.05333 67.624 6.3 67.4506 6.62C67.2906 6.92667 67.1706 7.31333 67.0906 7.78ZM84.6909 11.06L84.6709 11.16C84.6709 11.7733 84.7843 12.1667 85.0109 12.34L86.2309 12.68C86.2843 12.7067 86.3109 12.7333 86.3109 12.76L86.3509 12.84C86.3509 12.9333 86.3043 12.9867 86.2109 13H85.8509L83.7909 12.94L81.7309 13H81.4509C81.3176 13 81.2443 12.9467 81.2309 12.84C81.2309 12.72 81.3109 12.66 81.4709 12.66C82.0309 12.6067 82.4043 12.48 82.5909 12.28C82.7909 12.0667 82.8909 11.6867 82.8909 11.14V3.2C82.8909 2.76 82.8309 2.44 82.7109 2.24C82.5509 1.97333 82.2709 1.84 81.8709 1.84C81.6976 1.84 81.5443 1.81333 81.4109 1.76C81.2909 1.69333 81.2176 1.64667 81.1909 1.62L81.3109 1.56L81.6509 1.48H81.8509L82.7109 1.5L84.7109 1.46L86.2309 1.4C87.1776 1.4 87.8976 1.47333 88.3909 1.62C89.1909 1.83333 89.7643 2.24667 90.1109 2.86C90.3643 3.34 90.4909 3.84 90.4909 4.36C90.4909 5.02667 90.3243 5.58667 89.9909 6.04C89.7243 6.42667 89.3243 6.74 88.7909 6.98C88.5776 7.06 88.2909 7.14667 87.9309 7.24C87.7443 7.28 87.5309 7.32667 87.2909 7.38L91.0309 11.76C91.3509 12.16 91.7909 12.46 92.3509 12.66C92.4576 12.6733 92.5509 12.7133 92.6309 12.78C92.6576 12.7933 92.6909 12.8267 92.7309 12.88C92.7309 12.8933 92.7376 12.9067 92.7509 12.92L92.6909 13C92.6509 13.04 92.5709 13.06 92.4509 13.06L92.1309 13.02L91.3709 13H90.2909C90.0909 13 89.9376 12.98 89.8309 12.94C89.7376 12.9 89.6509 12.8333 89.5709 12.74L85.8509 8.08C85.7976 8.01333 85.6843 7.93333 85.5109 7.84C85.3376 7.73333 85.1709 7.67333 85.0109 7.66C84.7976 7.66 84.6909 7.78667 84.6909 8.04V11.06ZM84.6909 6.8C84.6909 6.98667 84.7243 7.12 84.7909 7.2C84.8443 7.24 84.9643 7.27333 85.1509 7.3L85.6109 7.26C86.5843 7.26 87.3043 7.06667 87.7709 6.68C88.2909 6.25333 88.5509 5.55333 88.5509 4.58C88.5509 2.7 87.6109 1.76 85.7309 1.76H85.4709C85.2309 1.76 85.0376 1.80667 84.8909 1.9C84.7576 1.99333 84.6909 2.16 84.6909 2.4V6.8ZM95.5666 6.84C95.5666 6.41333 95.3599 6.16 94.9466 6.08L94.3666 5.96L94.4066 5.86C94.4332 5.79333 94.5199 5.75333 94.6666 5.74L95.1866 5.64L95.8266 5.48L96.6666 5.18L96.8666 5.14C96.9866 5.14 97.0599 5.22 97.0866 5.38V11.52L97.0666 11.62C97.0666 12.0467 97.1532 12.32 97.3266 12.44L98.2266 12.68L98.3066 12.84L98.2266 13L97.9666 13.02L96.3266 12.94L94.6666 13.02L94.4066 13L94.3066 12.86L94.3666 12.76L94.4266 12.68L95.3066 12.42C95.4799 12.3133 95.5666 12.0133 95.5666 11.52V6.84ZM96.5866 1.02C96.6932 1.07333 96.7866 1.18 96.8666 1.34C96.9466 1.46 96.9866 1.60667 96.9866 1.78L96.9266 2.14C96.7799 2.51333 96.4799 2.7 96.0266 2.7L95.9066 2.68C95.7066 2.65333 95.5266 2.55333 95.3666 2.38C95.2199 2.20667 95.1466 2.00667 95.1466 1.78L95.2266 1.44C95.2799 1.29333 95.3799 1.17333 95.5266 1.08C95.6732 0.973333 95.8532 0.906666 96.0666 0.88C96.2666 0.88 96.4399 0.926666 96.5866 1.02ZM102.893 11.52L102.873 11.62C102.873 12.0467 102.96 12.32 103.133 12.44L104.033 12.68C104.086 12.7067 104.113 12.7333 104.113 12.76L104.133 12.84L104.033 13L103.773 13.02L102.133 12.94L100.473 13.02L100.233 13L100.153 12.94L100.113 12.86L100.173 12.76L100.233 12.68L101.113 12.42C101.286 12.3133 101.373 12.0133 101.373 11.52V7.24C101.373 7.02667 101.366 6.87333 101.353 6.78C101.34 6.68667 101.286 6.54667 101.193 6.36C101.1 6.17333 100.9 6.08 100.593 6.08C100.473 6.08 100.38 6.06667 100.313 6.04C100.246 6 100.2 5.96667 100.173 5.94C100.146 5.9 100.133 5.87333 100.133 5.86L100.233 5.78L100.413 5.72C100.626 5.68 100.84 5.63333 101.053 5.58C101.266 5.52667 101.473 5.46 101.673 5.38L102.353 5.18C102.513 5.18 102.626 5.3 102.693 5.54C102.773 5.78 102.813 6.22 102.813 6.86C103.493 5.78 104.42 5.24 105.593 5.24L106.313 5.3C106.7 5.34 107.033 5.46 107.313 5.66C107.606 5.86 107.846 6.13333 108.033 6.48L108.153 7.04L108.193 7.62V11.52C108.193 12.0133 108.273 12.3133 108.433 12.42L109.333 12.68L109.393 12.76L109.433 12.86C109.42 12.9 109.406 12.9333 109.393 12.96C109.38 12.9733 109.366 12.9867 109.353 13L109.093 13.02L107.433 12.94L105.793 13.02L105.553 13L105.453 12.94L105.433 12.84L105.473 12.76C105.5 12.7067 105.526 12.68 105.553 12.68L106.413 12.44C106.6 12.3333 106.693 12.06 106.693 11.62V7.6C106.693 7.04 106.54 6.59333 106.233 6.26C105.94 5.92667 105.573 5.76 105.133 5.76C104.573 5.76 104.073 5.98 103.633 6.42C103.14 6.91333 102.893 7.52667 102.893 8.26V11.52ZM113.606 10.5C113.02 10.3 112.553 9.96667 112.206 9.5C111.873 9.02 111.706 8.51333 111.706 7.98C111.706 7.75333 111.74 7.52667 111.806 7.3C111.873 7.07333 111.926 6.91333 111.966 6.82C112.02 6.72667 112.106 6.6 112.226 6.44C112.506 6.04 112.866 5.74 113.306 5.54C113.76 5.34 114.266 5.24 114.826 5.24C115.76 5.24 116.546 5.49333 117.186 6C117.386 5.86667 117.56 5.76 117.706 5.68C117.866 5.58667 118.026 5.51333 118.186 5.46C118.493 5.34 118.766 5.28 119.006 5.28C119.286 5.28 119.506 5.36 119.666 5.52C119.826 5.66667 119.906 5.84 119.906 6.04C119.906 6.28 119.813 6.44667 119.626 6.54L119.366 6.62C119.26 6.62 119.086 6.52 118.846 6.32C118.66 6.13333 118.46 6.02667 118.246 6C118.02 6 117.76 6.09333 117.466 6.28C117.56 6.42667 117.64 6.56667 117.706 6.7C117.773 6.82 117.84 6.96667 117.906 7.14C117.973 7.31333 118.02 7.46667 118.046 7.6C118.073 7.73333 118.086 7.9 118.086 8.1V8.34C118.086 8.74 117.966 9.12 117.726 9.48C117.5 9.82667 117.186 10.1067 116.786 10.32C116.48 10.4667 116.106 10.58 115.666 10.66L114.266 10.74C113.946 10.74 113.626 10.8 113.306 10.92C112.986 11.0267 112.826 11.2133 112.826 11.48L112.846 11.58C112.846 11.8067 113.093 11.96 113.586 12.04L114.306 12.08L114.786 12.06C115.866 12.06 116.68 12.14 117.226 12.3C118.106 12.5667 118.666 13.1 118.906 13.9L118.986 14.34L119.026 14.72C119.026 15.2533 118.893 15.7467 118.626 16.2C118.36 16.6533 117.973 17 117.466 17.24C117.146 17.3867 116.766 17.5067 116.326 17.6C116.113 17.64 115.906 17.6733 115.706 17.7C115.506 17.7267 115.286 17.74 115.046 17.74C114.406 17.74 113.826 17.6467 113.306 17.46C112.773 17.3 112.333 17.0333 111.986 16.66C111.813 16.46 111.673 16.2467 111.566 16.02C111.513 15.9 111.473 15.78 111.446 15.66C111.42 15.5533 111.406 15.4267 111.406 15.28C111.406 14.8 111.6 14.4067 111.986 14.1L112.386 13.92L112.846 13.84C113.06 13.84 113.206 13.9133 113.286 14.06C113.273 14.1 113.253 14.1333 113.226 14.16C113.213 14.1867 113.16 14.24 113.066 14.32L112.806 14.54C112.606 14.78 112.506 15.08 112.506 15.44C112.506 15.8 112.606 16.12 112.806 16.4C113.006 16.68 113.32 16.9 113.746 17.06C114.173 17.2333 114.646 17.32 115.166 17.32C115.713 17.32 116.173 17.2467 116.546 17.1C116.933 16.9667 117.253 16.7267 117.506 16.38C117.773 16.0467 117.906 15.6867 117.906 15.3C117.906 14.9533 117.793 14.6267 117.566 14.32C117.34 14.0267 117.006 13.8333 116.566 13.74C116.14 13.66 115.64 13.62 115.066 13.62H114.566C113.873 13.62 113.32 13.5267 112.906 13.34C112.306 13.0733 112.006 12.6467 112.006 12.06C112.006 11.6467 112.173 11.2933 112.506 11C112.76 10.8133 113.126 10.6467 113.606 10.5ZM116.666 8C116.666 7.65333 116.64 7.36 116.586 7.12C116.533 6.88 116.426 6.62667 116.266 6.36C115.946 5.8 115.493 5.52 114.906 5.52C114.373 5.52 113.946 5.78 113.626 6.3C113.333 6.84667 113.186 7.4 113.186 7.96C113.186 8.29333 113.213 8.58 113.266 8.82C113.32 9.04667 113.426 9.28667 113.586 9.54C113.906 10.1 114.346 10.38 114.906 10.38C115.44 10.38 115.88 10.1067 116.226 9.56C116.52 9.08 116.666 8.56 116.666 8ZM122.033 10.8L122.073 10.72L122.153 10.6C122.233 10.6 122.293 10.6733 122.333 10.82L122.433 11.14C122.593 11.6333 122.846 12.04 123.193 12.36C123.539 12.68 123.946 12.84 124.413 12.84C124.813 12.84 125.173 12.72 125.493 12.48C125.826 12.2267 125.993 11.9133 125.993 11.54V11.44C125.993 10.9467 125.553 10.46 124.673 9.98L123.593 9.42C123.486 9.36667 123.353 9.28667 123.193 9.18C123.033 9.07333 122.879 8.94 122.733 8.78C122.466 8.5 122.279 8.19333 122.173 7.86L122.093 7.32C122.093 6.90667 122.213 6.5 122.453 6.1C122.653 5.79333 122.913 5.57333 123.233 5.44C123.553 5.30667 123.886 5.24 124.233 5.24C124.486 5.24 124.673 5.24667 124.793 5.26C124.913 5.27333 125.093 5.32 125.333 5.4L125.673 5.48L126.013 5.42L126.353 5.24C126.379 5.26667 126.406 5.30667 126.433 5.36C126.459 5.41333 126.473 5.49333 126.473 5.6L126.493 6.1L126.473 7.2C126.459 7.28 126.446 7.32667 126.433 7.34L126.373 7.4C126.279 7.34667 126.219 7.3 126.193 7.26L126.053 7.02C125.893 6.63333 125.659 6.3 125.353 6.02C125.046 5.74 124.699 5.6 124.313 5.6C123.979 5.6 123.699 5.69333 123.473 5.88C123.259 6.05333 123.153 6.29333 123.153 6.6V6.78C123.219 7.12667 123.533 7.47333 124.093 7.82L125.433 8.54C125.593 8.63333 125.779 8.74667 125.993 8.88C126.206 9.01333 126.346 9.11333 126.413 9.18C126.679 9.44667 126.873 9.78667 126.993 10.2L127.053 10.82C127.053 11.0067 127.039 11.1533 127.013 11.26C127.013 11.4333 126.979 11.5933 126.913 11.74C126.779 12.2067 126.479 12.5733 126.013 12.84C125.546 13.0933 125.046 13.22 124.513 13.22L123.873 13.18C123.726 13.1533 123.539 13.0933 123.313 13C123.086 12.9067 122.899 12.8467 122.753 12.82C122.673 12.82 122.599 12.84 122.533 12.88L122.353 13L122.133 13.08C122.093 13.0533 122.059 13.0067 122.033 12.94V10.8Z" fill="#2E2E2E"/>
</svg>
