<svg width="153" height="18" viewBox="0 0 153 18" fill="none" xmlns="http://www.w3.org/2000/svg">
<path d="M3.6 10.04L3.58 10.28C3.58 10.92 3.65333 11.4133 3.8 11.76C3.96 12.1067 4.34667 12.34 4.96 12.46L5.62 12.54L6.32 12.58C6.85333 12.58 7.34 12.52 7.78 12.4C8.22 12.2667 8.58 12.04 8.86 11.72C8.98 11.5733 9.10667 11.3133 9.24 10.94C9.37333 10.5533 9.48 10.3467 9.56 10.32C9.64 10.4 9.68667 10.4733 9.7 10.54L9.74 11.06L9.68 12.66C9.68 12.8067 9.65333 12.9067 9.6 12.96C9.54667 13 9.43333 13.02 9.26 13.02L8.58 13L4.82 12.94H3.1L1.4 12.96L1 13L0.56 13.04L0.26 13L0.16 12.84L0.3 12.66L0.7 12.58C0.94 12.5533 1.10667 12.52 1.2 12.48C1.46667 12.4 1.64667 12.2067 1.74 11.9C1.76667 11.7933 1.78667 11.6867 1.8 11.58C1.81333 11.46 1.82 11.2867 1.82 11.06V3.32C1.82 2.93333 1.78 2.62 1.7 2.38C1.62 2.14 1.42667 1.98 1.12 1.9L0.24 1.76L0.14 1.64L0.3 1.48L0.68 1.46L2 1.52L3.08 1.54L6.72 1.48L7.76 1.46L8.58 1.52C8.72667 1.56 8.81333 1.66 8.84 1.82V1.94L8.78 2.8L8.86 3.66L8.84 3.86C8.8 3.94 8.73333 3.98667 8.64 4L8.56 3.96C8.53333 3.90667 8.51333 3.86 8.5 3.82C8.44667 3.68667 8.40667 3.54667 8.38 3.4C8.3 3.06667 8.19333 2.81333 8.06 2.64C7.82 2.36 7.47333 2.16667 7.02 2.06C6.58 1.94 6.08667 1.88 5.54 1.88L4.28 1.92C4.02667 1.92 3.84 1.98 3.72 2.1C3.62667 2.22 3.58 2.4 3.58 2.64L3.6 2.82V6.78C4.13333 6.78 4.56667 6.74667 4.9 6.68C5.24667 6.61333 5.53333 6.48 5.76 6.28C6 6.08 6.16 5.86667 6.24 5.64L6.5 4.62L6.64 4.54C6.76 4.54 6.82667 4.60667 6.84 4.74V5L6.76 6.74V6.86L6.8 7.8L6.84 8.72L6.82 9.06C6.79333 9.11333 6.76667 9.14667 6.74 9.16L6.66 9.18L6.52 9.04L6.28 8.26C6.2 8.02 6.06667 7.82 5.88 7.66C5.69333 7.48667 5.46 7.37333 5.18 7.32C4.91333 7.25333 4.72667 7.21333 4.62 7.2C4.51333 7.18667 4.33333 7.18 4.08 7.18H3.6V10.04ZM14.2602 11.52L14.2402 11.62C14.2402 12.0467 14.3268 12.32 14.5002 12.44L15.4002 12.68C15.4535 12.7067 15.4802 12.7333 15.4802 12.76L15.5002 12.84L15.4002 13L15.1402 13.02L13.5002 12.94L11.8402 13.02L11.6002 13L11.5202 12.94L11.4802 12.86L11.5402 12.76L11.6002 12.68L12.4802 12.42C12.6535 12.3133 12.7402 12.0133 12.7402 11.52V7.24C12.7402 7.02667 12.7335 6.87333 12.7202 6.78C12.7068 6.68667 12.6535 6.54667 12.5602 6.36C12.4668 6.17333 12.2668 6.08 11.9602 6.08C11.8402 6.08 11.7468 6.06667 11.6802 6.04C11.6135 6 11.5668 5.96667 11.5402 5.94C11.5135 5.9 11.5002 5.87333 11.5002 5.86L11.6002 5.78L11.7802 5.72C11.9935 5.68 12.2068 5.63333 12.4202 5.58C12.6335 5.52667 12.8402 5.46 13.0402 5.38L13.7202 5.18C13.8802 5.18 13.9935 5.3 14.0602 5.54C14.1402 5.78 14.1802 6.22 14.1802 6.86C14.8602 5.78 15.7868 5.24 16.9602 5.24L17.6802 5.3C18.0668 5.34 18.4002 5.46 18.6802 5.66C18.9735 5.86 19.2135 6.13333 19.4002 6.48L19.5202 7.04L19.5602 7.62V11.52C19.5602 12.0133 19.6402 12.3133 19.8002 12.42L20.7002 12.68L20.7602 12.76L20.8002 12.86C20.7868 12.9 20.7735 12.9333 20.7602 12.96C20.7468 12.9733 20.7335 12.9867 20.7202 13L20.4602 13.02L18.8002 12.94L17.1602 13.02L16.9202 13L16.8202 12.94L16.8002 12.84L16.8402 12.76C16.8668 12.7067 16.8935 12.68 16.9202 12.68L17.7802 12.44C17.9668 12.3333 18.0602 12.06 18.0602 11.62V7.6C18.0602 7.04 17.9068 6.59333 17.6002 6.26C17.3068 5.92667 16.9402 5.76 16.5002 5.76C15.9402 5.76 15.4402 5.98 15.0002 6.42C14.5068 6.91333 14.2602 7.52667 14.2602 8.26V11.52ZM24.9734 10.5C24.3868 10.3 23.9201 9.96667 23.5734 9.5C23.2401 9.02 23.0734 8.51333 23.0734 7.98C23.0734 7.75333 23.1068 7.52667 23.1734 7.3C23.2401 7.07333 23.2934 6.91333 23.3334 6.82C23.3868 6.72667 23.4734 6.6 23.5934 6.44C23.8734 6.04 24.2334 5.74 24.6734 5.54C25.1268 5.34 25.6334 5.24 26.1934 5.24C27.1268 5.24 27.9134 5.49333 28.5534 6C28.7534 5.86667 28.9268 5.76 29.0734 5.68C29.2334 5.58667 29.3934 5.51333 29.5534 5.46C29.8601 5.34 30.1334 5.28 30.3734 5.28C30.6534 5.28 30.8734 5.36 31.0334 5.52C31.1934 5.66667 31.2734 5.84 31.2734 6.04C31.2734 6.28 31.1801 6.44667 30.9934 6.54L30.7334 6.62C30.6268 6.62 30.4534 6.52 30.2134 6.32C30.0268 6.13333 29.8268 6.02667 29.6134 6C29.3868 6 29.1268 6.09333 28.8334 6.28C28.9268 6.42667 29.0068 6.56667 29.0734 6.7C29.1401 6.82 29.2068 6.96667 29.2734 7.14C29.3401 7.31333 29.3868 7.46667 29.4134 7.6C29.4401 7.73333 29.4534 7.9 29.4534 8.1V8.34C29.4534 8.74 29.3334 9.12 29.0934 9.48C28.8668 9.82667 28.5534 10.1067 28.1534 10.32C27.8468 10.4667 27.4734 10.58 27.0334 10.66L25.6334 10.74C25.3134 10.74 24.9934 10.8 24.6734 10.92C24.3534 11.0267 24.1934 11.2133 24.1934 11.48L24.2134 11.58C24.2134 11.8067 24.4601 11.96 24.9534 12.04L25.6734 12.08L26.1534 12.06C27.2334 12.06 28.0468 12.14 28.5934 12.3C29.4734 12.5667 30.0334 13.1 30.2734 13.9L30.3534 14.34L30.3934 14.72C30.3934 15.2533 30.2601 15.7467 29.9934 16.2C29.7268 16.6533 29.3401 17 28.8334 17.24C28.5134 17.3867 28.1334 17.5067 27.6934 17.6C27.4801 17.64 27.2734 17.6733 27.0734 17.7C26.8734 17.7267 26.6534 17.74 26.4134 17.74C25.7734 17.74 25.1934 17.6467 24.6734 17.46C24.1401 17.3 23.7001 17.0333 23.3534 16.66C23.1801 16.46 23.0401 16.2467 22.9334 16.02C22.8801 15.9 22.8401 15.78 22.8134 15.66C22.7868 15.5533 22.7734 15.4267 22.7734 15.28C22.7734 14.8 22.9668 14.4067 23.3534 14.1L23.7534 13.92L24.2134 13.84C24.4268 13.84 24.5734 13.9133 24.6534 14.06C24.6401 14.1 24.6201 14.1333 24.5934 14.16C24.5801 14.1867 24.5268 14.24 24.4334 14.32L24.1734 14.54C23.9734 14.78 23.8734 15.08 23.8734 15.44C23.8734 15.8 23.9734 16.12 24.1734 16.4C24.3734 16.68 24.6868 16.9 25.1134 17.06C25.5401 17.2333 26.0134 17.32 26.5334 17.32C27.0801 17.32 27.5401 17.2467 27.9134 17.1C28.3001 16.9667 28.6201 16.7267 28.8734 16.38C29.1401 16.0467 29.2734 15.6867 29.2734 15.3C29.2734 14.9533 29.1601 14.6267 28.9334 14.32C28.7068 14.0267 28.3734 13.8333 27.9334 13.74C27.5068 13.66 27.0068 13.62 26.4334 13.62H25.9334C25.2401 13.62 24.6868 13.5267 24.2734 13.34C23.6734 13.0733 23.3734 12.6467 23.3734 12.06C23.3734 11.6467 23.5401 11.2933 23.8734 11C24.1268 10.8133 24.4934 10.6467 24.9734 10.5ZM28.0334 8C28.0334 7.65333 28.0068 7.36 27.9534 7.12C27.9001 6.88 27.7934 6.62667 27.6334 6.36C27.3134 5.8 26.8601 5.52 26.2734 5.52C25.7401 5.52 25.3134 5.78 24.9934 6.3C24.7001 6.84667 24.5534 7.4 24.5534 7.96C24.5534 8.29333 24.5801 8.58 24.6334 8.82C24.6868 9.04667 24.7934 9.28667 24.9534 9.54C25.2734 10.1 25.7134 10.38 26.2734 10.38C26.8068 10.38 27.2468 10.1067 27.5934 9.56C27.8868 9.08 28.0334 8.56 28.0334 8ZM34.9398 8.28L34.8798 9.1C34.8798 10.14 35.1665 10.9933 35.7398 11.66C36.2598 12.2867 36.9065 12.6 37.6798 12.6C38.3465 12.6 38.9465 12.3533 39.4798 11.86L39.6598 11.64C39.7265 11.5467 39.8198 11.4933 39.9398 11.48L40.0398 11.5C40.0798 11.5267 40.1132 11.5867 40.1398 11.68C40.1398 11.7733 40.0732 11.9067 39.9398 12.08C39.8065 12.24 39.6465 12.4 39.4598 12.56C39.1798 12.76 38.8332 12.92 38.4198 13.04C38.0065 13.1733 37.5865 13.24 37.1598 13.24C36.1865 13.24 35.3332 12.9733 34.5998 12.44C34.1332 12.08 33.7732 11.64 33.5198 11.12C33.2798 10.5867 33.1598 10.0267 33.1598 9.44C33.1598 8.14667 33.6332 7.06667 34.5798 6.2C34.9265 5.86667 35.3198 5.62667 35.7598 5.48C36.1998 5.32 36.6865 5.24 37.2198 5.24C37.9532 5.24 38.6065 5.42 39.1798 5.78C39.7532 6.14 40.1465 6.67333 40.3598 7.38L40.4198 7.74L40.4598 7.94C40.4598 8.16667 40.3065 8.28 39.9998 8.28H34.9398ZM35.0398 7.78H38.5598C38.7598 7.78 38.8598 7.64667 38.8598 7.38C38.8598 7.15333 38.7998 6.89333 38.6798 6.6C38.5598 6.30667 38.4398 6.1 38.3198 5.98C37.9998 5.72667 37.6198 5.6 37.1798 5.6C36.7532 5.6 36.3932 5.69333 36.0998 5.88C35.8065 6.05333 35.5732 6.3 35.3998 6.62C35.2398 6.92667 35.1198 7.31333 35.0398 7.78ZM44.6023 10.5C44.0157 10.3 43.549 9.96667 43.2023 9.5C42.869 9.02 42.7023 8.51333 42.7023 7.98C42.7023 7.75333 42.7357 7.52667 42.8023 7.3C42.869 7.07333 42.9223 6.91333 42.9623 6.82C43.0157 6.72667 43.1023 6.6 43.2223 6.44C43.5023 6.04 43.8623 5.74 44.3023 5.54C44.7557 5.34 45.2623 5.24 45.8223 5.24C46.7557 5.24 47.5423 5.49333 48.1823 6C48.3823 5.86667 48.5557 5.76 48.7023 5.68C48.8623 5.58667 49.0223 5.51333 49.1823 5.46C49.489 5.34 49.7623 5.28 50.0023 5.28C50.2823 5.28 50.5023 5.36 50.6623 5.52C50.8223 5.66667 50.9023 5.84 50.9023 6.04C50.9023 6.28 50.809 6.44667 50.6223 6.54L50.3623 6.62C50.2557 6.62 50.0823 6.52 49.8423 6.32C49.6557 6.13333 49.4557 6.02667 49.2423 6C49.0157 6 48.7557 6.09333 48.4623 6.28C48.5557 6.42667 48.6357 6.56667 48.7023 6.7C48.769 6.82 48.8357 6.96667 48.9023 7.14C48.969 7.31333 49.0157 7.46667 49.0423 7.6C49.069 7.73333 49.0823 7.9 49.0823 8.1V8.34C49.0823 8.74 48.9623 9.12 48.7223 9.48C48.4957 9.82667 48.1823 10.1067 47.7823 10.32C47.4757 10.4667 47.1023 10.58 46.6623 10.66L45.2623 10.74C44.9423 10.74 44.6223 10.8 44.3023 10.92C43.9823 11.0267 43.8223 11.2133 43.8223 11.48L43.8423 11.58C43.8423 11.8067 44.089 11.96 44.5823 12.04L45.3023 12.08L45.7823 12.06C46.8623 12.06 47.6757 12.14 48.2223 12.3C49.1023 12.5667 49.6623 13.1 49.9023 13.9L49.9823 14.34L50.0223 14.72C50.0223 15.2533 49.889 15.7467 49.6223 16.2C49.3557 16.6533 48.969 17 48.4623 17.24C48.1423 17.3867 47.7623 17.5067 47.3223 17.6C47.109 17.64 46.9023 17.6733 46.7023 17.7C46.5023 17.7267 46.2823 17.74 46.0423 17.74C45.4023 17.74 44.8223 17.6467 44.3023 17.46C43.769 17.3 43.329 17.0333 42.9823 16.66C42.809 16.46 42.669 16.2467 42.5623 16.02C42.509 15.9 42.469 15.78 42.4423 15.66C42.4157 15.5533 42.4023 15.4267 42.4023 15.28C42.4023 14.8 42.5957 14.4067 42.9823 14.1L43.3823 13.92L43.8423 13.84C44.0557 13.84 44.2023 13.9133 44.2823 14.06C44.269 14.1 44.249 14.1333 44.2223 14.16C44.209 14.1867 44.1557 14.24 44.0623 14.32L43.8023 14.54C43.6023 14.78 43.5023 15.08 43.5023 15.44C43.5023 15.8 43.6023 16.12 43.8023 16.4C44.0023 16.68 44.3157 16.9 44.7423 17.06C45.169 17.2333 45.6423 17.32 46.1623 17.32C46.709 17.32 47.169 17.2467 47.5423 17.1C47.929 16.9667 48.249 16.7267 48.5023 16.38C48.769 16.0467 48.9023 15.6867 48.9023 15.3C48.9023 14.9533 48.789 14.6267 48.5623 14.32C48.3357 14.0267 48.0023 13.8333 47.5623 13.74C47.1357 13.66 46.6357 13.62 46.0623 13.62H45.5623C44.869 13.62 44.3157 13.5267 43.9023 13.34C43.3023 13.0733 43.0023 12.6467 43.0023 12.06C43.0023 11.6467 43.169 11.2933 43.5023 11C43.7557 10.8133 44.1223 10.6467 44.6023 10.5ZM47.6623 8C47.6623 7.65333 47.6357 7.36 47.5823 7.12C47.529 6.88 47.4223 6.62667 47.2623 6.36C46.9423 5.8 46.489 5.52 45.9023 5.52C45.369 5.52 44.9423 5.78 44.6223 6.3C44.329 6.84667 44.1823 7.4 44.1823 7.96C44.1823 8.29333 44.209 8.58 44.2623 8.82C44.3157 9.04667 44.4223 9.28667 44.5823 9.54C44.9023 10.1 45.3423 10.38 45.9023 10.38C46.4357 10.38 46.8757 10.1067 47.2223 9.56C47.5157 9.08 47.6623 8.56 47.6623 8ZM54.5688 8.28L54.5088 9.1C54.5088 10.14 54.7954 10.9933 55.3688 11.66C55.8888 12.2867 56.5354 12.6 57.3088 12.6C57.9754 12.6 58.5754 12.3533 59.1088 11.86L59.2888 11.64C59.3554 11.5467 59.4488 11.4933 59.5688 11.48L59.6688 11.5C59.7088 11.5267 59.7421 11.5867 59.7688 11.68C59.7688 11.7733 59.7021 11.9067 59.5688 12.08C59.4354 12.24 59.2754 12.4 59.0888 12.56C58.8088 12.76 58.4621 12.92 58.0488 13.04C57.6354 13.1733 57.2154 13.24 56.7888 13.24C55.8154 13.24 54.9621 12.9733 54.2288 12.44C53.7621 12.08 53.4021 11.64 53.1488 11.12C52.9088 10.5867 52.7888 10.0267 52.7888 9.44C52.7888 8.14667 53.2621 7.06667 54.2088 6.2C54.5554 5.86667 54.9488 5.62667 55.3888 5.48C55.8288 5.32 56.3154 5.24 56.8488 5.24C57.5821 5.24 58.2354 5.42 58.8088 5.78C59.3821 6.14 59.7754 6.67333 59.9888 7.38L60.0488 7.74L60.0888 7.94C60.0888 8.16667 59.9354 8.28 59.6288 8.28H54.5688ZM54.6688 7.78H58.1888C58.3888 7.78 58.4888 7.64667 58.4888 7.38C58.4888 7.15333 58.4288 6.89333 58.3088 6.6C58.1888 6.30667 58.0688 6.1 57.9488 5.98C57.6288 5.72667 57.2488 5.6 56.8088 5.6C56.3821 5.6 56.0221 5.69333 55.7288 5.88C55.4354 6.05333 55.2021 6.3 55.0288 6.62C54.8688 6.92667 54.7488 7.31333 54.6688 7.78ZM64.5313 6.76C64.8246 6.28 65.1713 5.91333 65.5713 5.66C66.0379 5.36667 66.5179 5.22 67.0113 5.22H67.2913C67.8646 5.22 68.3313 5.33333 68.6913 5.56C69.0513 5.77333 69.3313 6.16 69.5313 6.72C69.8513 6.25333 70.2446 5.89333 70.7113 5.64C71.1913 5.37333 71.7113 5.24 72.2713 5.24C72.5513 5.24 72.7446 5.25333 72.8513 5.28C73.5179 5.4 74.0113 5.66667 74.3313 6.08C74.5846 6.46667 74.7113 7.01333 74.7113 7.72V11.52C74.7113 12.0133 74.7913 12.3133 74.9513 12.42L75.8513 12.68C75.9046 12.72 75.9313 12.7533 75.9313 12.78L75.9513 12.86L75.8713 13L75.6113 13.02L73.9513 12.94L72.2913 13.02L72.0512 13L71.9713 12.94L71.9513 12.84L72.0512 12.68L72.9313 12.44C73.1046 12.3467 73.1913 12.0733 73.1913 11.62V7.48C73.1913 6.97333 73.0713 6.56667 72.8313 6.26C72.5913 5.94 72.2113 5.78 71.6913 5.78C71.0379 5.78 70.5379 6.03333 70.1913 6.54C69.8446 7.03333 69.6713 7.61333 69.6713 8.28V11.62C69.6713 12.0467 69.7579 12.32 69.9313 12.44C70.2379 12.4933 70.5246 12.5733 70.7913 12.68C70.8446 12.72 70.8713 12.7533 70.8713 12.78L70.9113 12.86L70.8113 13L70.5513 13.02L68.9113 12.94L67.2513 13.02L67.0113 13L66.9313 12.94L66.9112 12.86L66.9513 12.76C66.9779 12.7067 67.0046 12.68 67.0313 12.68L67.9113 12.42C68.0846 12.3133 68.1713 12.0133 68.1713 11.52V7.48C68.1713 6.97333 68.0446 6.56667 67.7913 6.26C67.5513 5.94 67.1779 5.78 66.6713 5.78C66.0313 5.78 65.5246 6.02667 65.1513 6.52C64.8046 7.01333 64.6313 7.6 64.6313 8.28V11.52L64.6113 11.62C64.6113 12.0467 64.6979 12.32 64.8713 12.44L65.7713 12.68C65.8246 12.7067 65.8513 12.7333 65.8513 12.76L65.8713 12.84L65.7713 13L65.5113 13.02L63.8713 12.94L62.2113 13.02L61.9713 13L61.8913 12.94L61.8513 12.86L61.9113 12.76L61.9713 12.68L62.8513 12.42C63.0246 12.3133 63.1113 12.0133 63.1113 11.52V7.24C63.1113 7.02667 63.1046 6.87333 63.0913 6.78C63.0779 6.68667 63.0246 6.54667 62.9313 6.36C62.8379 6.17333 62.6379 6.08 62.3313 6.08C62.2113 6.08 62.1179 6.06667 62.0513 6.04C61.9846 6 61.9379 5.96667 61.9113 5.94C61.8846 5.9 61.8713 5.87333 61.8713 5.86L61.9713 5.78L62.2313 5.7L63.3113 5.42L64.2113 5.18C64.3313 5.18 64.4113 5.38 64.4513 5.78L64.5313 6.76ZM79.5688 8.28L79.5088 9.1C79.5088 10.14 79.7954 10.9933 80.3688 11.66C80.8888 12.2867 81.5354 12.6 82.3088 12.6C82.9754 12.6 83.5754 12.3533 84.1088 11.86L84.2888 11.64C84.3554 11.5467 84.4488 11.4933 84.5688 11.48L84.6688 11.5C84.7088 11.5267 84.7421 11.5867 84.7688 11.68C84.7688 11.7733 84.7021 11.9067 84.5688 12.08C84.4354 12.24 84.2754 12.4 84.0888 12.56C83.8088 12.76 83.4621 12.92 83.0488 13.04C82.6354 13.1733 82.2154 13.24 81.7888 13.24C80.8154 13.24 79.9621 12.9733 79.2288 12.44C78.7621 12.08 78.4021 11.64 78.1488 11.12C77.9088 10.5867 77.7888 10.0267 77.7888 9.44C77.7888 8.14667 78.2621 7.06667 79.2088 6.2C79.5554 5.86667 79.9488 5.62667 80.3888 5.48C80.8288 5.32 81.3154 5.24 81.8488 5.24C82.5821 5.24 83.2354 5.42 83.8088 5.78C84.3821 6.14 84.7754 6.67333 84.9888 7.38L85.0488 7.74L85.0888 7.94C85.0888 8.16667 84.9354 8.28 84.6288 8.28H79.5688ZM79.6688 7.78H83.1888C83.3888 7.78 83.4888 7.64667 83.4888 7.38C83.4888 7.15333 83.4288 6.89333 83.3088 6.6C83.1888 6.30667 83.0688 6.1 82.9488 5.98C82.6288 5.72667 82.2488 5.6 81.8088 5.6C81.3821 5.6 81.0221 5.69333 80.7288 5.88C80.4354 6.05333 80.2021 6.3 80.0288 6.62C79.8688 6.92667 79.7488 7.31333 79.6688 7.78ZM89.6313 11.52L89.6113 11.62C89.6113 12.0467 89.6979 12.32 89.8713 12.44L90.7713 12.68C90.8246 12.7067 90.8513 12.7333 90.8513 12.76L90.8713 12.84L90.7713 13L90.5113 13.02L88.8713 12.94L87.2113 13.02L86.9713 13L86.8913 12.94L86.8513 12.86L86.9113 12.76L86.9713 12.68L87.8513 12.42C88.0246 12.3133 88.1113 12.0133 88.1113 11.52V7.24C88.1113 7.02667 88.1046 6.87333 88.0913 6.78C88.0779 6.68667 88.0246 6.54667 87.9313 6.36C87.8379 6.17333 87.6379 6.08 87.3313 6.08C87.2113 6.08 87.1179 6.06667 87.0513 6.04C86.9846 6 86.9379 5.96667 86.9113 5.94C86.8846 5.9 86.8713 5.87333 86.8713 5.86L86.9713 5.78L87.1513 5.72C87.3646 5.68 87.5779 5.63333 87.7913 5.58C88.0046 5.52667 88.2113 5.46 88.4113 5.38L89.0913 5.18C89.2513 5.18 89.3646 5.3 89.4313 5.54C89.5113 5.78 89.5513 6.22 89.5513 6.86C90.2313 5.78 91.1579 5.24 92.3313 5.24L93.0513 5.3C93.4379 5.34 93.7713 5.46 94.0513 5.66C94.3446 5.86 94.5846 6.13333 94.7713 6.48L94.8913 7.04L94.9313 7.62V11.52C94.9313 12.0133 95.0113 12.3133 95.1713 12.42L96.0713 12.68L96.1312 12.76L96.1713 12.86C96.1579 12.9 96.1446 12.9333 96.1312 12.96C96.1179 12.9733 96.1046 12.9867 96.0913 13L95.8313 13.02L94.1713 12.94L92.5313 13.02L92.2913 13L92.1913 12.94L92.1713 12.84L92.2113 12.76C92.2379 12.7067 92.2646 12.68 92.2913 12.68L93.1513 12.44C93.3379 12.3333 93.4313 12.06 93.4313 11.62V7.6C93.4313 7.04 93.2779 6.59333 92.9713 6.26C92.6779 5.92667 92.3113 5.76 91.8713 5.76C91.3113 5.76 90.8113 5.98 90.3713 6.42C89.8779 6.91333 89.6313 7.52667 89.6313 8.26V11.52ZM98.7845 5.94C98.2112 5.94 97.9179 5.89333 97.9045 5.8C97.9712 5.73333 98.0245 5.68 98.0645 5.64C98.2379 5.48 98.4045 5.33333 98.5645 5.2C98.8579 4.98667 99.0779 4.78 99.2245 4.58C99.3179 4.48667 99.4512 4.3 99.6245 4.02L99.9445 3.5L100.085 3.46C100.165 3.55333 100.211 3.63333 100.225 3.7L100.265 4.3L100.225 5.42L101.465 5.4L102.125 5.44C102.245 5.48 102.305 5.56 102.305 5.68C102.305 5.84 102.218 5.92 102.045 5.92L101.305 5.98L100.245 5.94V11.12C100.245 11.5333 100.271 11.8467 100.325 12.06C100.391 12.26 100.565 12.4267 100.845 12.56C101.031 12.64 101.191 12.68 101.325 12.68C101.471 12.68 101.598 12.66 101.705 12.62L102.185 12.2C102.411 12 102.578 11.8867 102.685 11.86C102.778 11.9133 102.831 11.9667 102.845 12.02V12.1C102.845 12.18 102.811 12.2733 102.745 12.38L102.545 12.62C102.318 12.82 102.045 12.96 101.725 13.04C101.405 13.1333 101.091 13.18 100.785 13.18H100.705C99.9712 13.18 99.4645 13.0067 99.1845 12.66C98.9179 12.3133 98.7845 11.7733 98.7845 11.04V5.94ZM114.163 6.98C114.363 6.56667 114.616 6.22667 114.923 5.96C115.243 5.68 115.636 5.48667 116.103 5.38L116.643 5.34C116.883 5.34 117.116 5.38667 117.343 5.48C117.569 5.56 117.736 5.69333 117.843 5.88L117.923 6.26C117.923 6.47333 117.876 6.64 117.783 6.76C117.689 6.86667 117.543 6.93333 117.343 6.96C117.076 6.86667 116.903 6.76 116.823 6.64C116.543 6.17333 116.276 5.94 116.023 5.94C115.463 5.94 115.023 6.18 114.703 6.66C114.569 6.87333 114.463 7.12 114.383 7.4C114.303 7.68 114.263 7.96667 114.263 8.26V11.52C114.263 12.0133 114.343 12.3133 114.503 12.42L115.403 12.68C115.456 12.72 115.483 12.7533 115.483 12.78L115.503 12.86L115.423 13L115.163 13.02L113.502 12.94L111.863 13.02L111.623 13L111.523 12.94L111.503 12.84L111.543 12.76C111.569 12.7067 111.596 12.68 111.623 12.68L112.483 12.44C112.656 12.3467 112.743 12.0733 112.743 11.62V7.56C112.743 7.25333 112.736 7.04 112.723 6.92C112.709 6.78667 112.663 6.65333 112.583 6.52C112.449 6.28 112.163 6.12667 111.723 6.06L111.543 6.08C111.383 6.08 111.283 6.04667 111.243 5.98L111.222 5.88C111.222 5.81333 111.269 5.76 111.363 5.72L112.643 5.42L113.843 5.16C113.909 5.2 113.976 5.44 114.043 5.88L114.163 6.98ZM120.723 6.84C120.723 6.41333 120.516 6.16 120.103 6.08L119.523 5.96L119.563 5.86C119.589 5.79333 119.676 5.75333 119.823 5.74L120.343 5.64L120.983 5.48L121.823 5.18L122.023 5.14C122.143 5.14 122.216 5.22 122.243 5.38V11.52L122.223 11.62C122.223 12.0467 122.309 12.32 122.483 12.44L123.383 12.68L123.463 12.84L123.383 13L123.123 13.02L121.483 12.94L119.823 13.02L119.563 13L119.463 12.86L119.523 12.76L119.583 12.68L120.463 12.42C120.636 12.3133 120.723 12.0133 120.723 11.52V6.84ZM121.743 1.02C121.849 1.07333 121.943 1.18 122.023 1.34C122.103 1.46 122.143 1.60667 122.143 1.78L122.083 2.14C121.936 2.51333 121.636 2.7 121.183 2.7L121.063 2.68C120.863 2.65333 120.683 2.55333 120.523 2.38C120.376 2.20667 120.303 2.00667 120.303 1.78L120.383 1.44C120.436 1.29333 120.536 1.17333 120.683 1.08C120.829 0.973333 121.009 0.906666 121.223 0.88C121.423 0.88 121.596 0.926666 121.743 1.02ZM128.049 11.52L128.029 11.62C128.029 12.0467 128.116 12.32 128.289 12.44L129.189 12.68C129.243 12.7067 129.269 12.7333 129.269 12.76L129.289 12.84L129.189 13L128.929 13.02L127.289 12.94L125.629 13.02L125.389 13L125.309 12.94L125.269 12.86L125.329 12.76L125.389 12.68L126.269 12.42C126.443 12.3133 126.529 12.0133 126.529 11.52V7.24C126.529 7.02667 126.523 6.87333 126.509 6.78C126.496 6.68667 126.443 6.54667 126.349 6.36C126.256 6.17333 126.056 6.08 125.749 6.08C125.629 6.08 125.536 6.06667 125.469 6.04C125.403 6 125.356 5.96667 125.329 5.94C125.303 5.9 125.289 5.87333 125.289 5.86L125.389 5.78L125.569 5.72C125.783 5.68 125.996 5.63333 126.209 5.58C126.423 5.52667 126.629 5.46 126.829 5.38L127.509 5.18C127.669 5.18 127.783 5.3 127.849 5.54C127.929 5.78 127.969 6.22 127.969 6.86C128.649 5.78 129.576 5.24 130.749 5.24L131.469 5.3C131.856 5.34 132.189 5.46 132.469 5.66C132.763 5.86 133.003 6.13333 133.189 6.48L133.309 7.04L133.349 7.62V11.52C133.349 12.0133 133.429 12.3133 133.589 12.42L134.489 12.68L134.549 12.76L134.589 12.86C134.576 12.9 134.563 12.9333 134.549 12.96C134.536 12.9733 134.523 12.9867 134.509 13L134.249 13.02L132.589 12.94L130.949 13.02L130.709 13L130.609 12.94L130.589 12.84L130.629 12.76C130.656 12.7067 130.683 12.68 130.709 12.68L131.569 12.44C131.756 12.3333 131.849 12.06 131.849 11.62V7.6C131.849 7.04 131.696 6.59333 131.389 6.26C131.096 5.92667 130.729 5.76 130.289 5.76C129.729 5.76 129.229 5.98 128.789 6.42C128.296 6.91333 128.049 7.52667 128.049 8.26V11.52ZM138.763 10.5C138.176 10.3 137.709 9.96667 137.363 9.5C137.029 9.02 136.863 8.51333 136.863 7.98C136.863 7.75333 136.896 7.52667 136.963 7.3C137.029 7.07333 137.083 6.91333 137.123 6.82C137.176 6.72667 137.263 6.6 137.383 6.44C137.663 6.04 138.023 5.74 138.463 5.54C138.916 5.34 139.423 5.24 139.983 5.24C140.916 5.24 141.703 5.49333 142.343 6C142.543 5.86667 142.716 5.76 142.863 5.68C143.023 5.58667 143.183 5.51333 143.343 5.46C143.649 5.34 143.923 5.28 144.163 5.28C144.443 5.28 144.663 5.36 144.823 5.52C144.983 5.66667 145.063 5.84 145.063 6.04C145.063 6.28 144.969 6.44667 144.783 6.54L144.523 6.62C144.416 6.62 144.243 6.52 144.003 6.32C143.816 6.13333 143.616 6.02667 143.403 6C143.176 6 142.916 6.09333 142.623 6.28C142.716 6.42667 142.796 6.56667 142.863 6.7C142.929 6.82 142.996 6.96667 143.063 7.14C143.129 7.31333 143.176 7.46667 143.203 7.6C143.229 7.73333 143.243 7.9 143.243 8.1V8.34C143.243 8.74 143.123 9.12 142.883 9.48C142.656 9.82667 142.343 10.1067 141.943 10.32C141.636 10.4667 141.263 10.58 140.823 10.66L139.423 10.74C139.103 10.74 138.783 10.8 138.463 10.92C138.143 11.0267 137.983 11.2133 137.983 11.48L138.003 11.58C138.003 11.8067 138.249 11.96 138.743 12.04L139.463 12.08L139.943 12.06C141.023 12.06 141.836 12.14 142.383 12.3C143.263 12.5667 143.823 13.1 144.063 13.9L144.143 14.34L144.183 14.72C144.183 15.2533 144.049 15.7467 143.783 16.2C143.516 16.6533 143.129 17 142.623 17.24C142.303 17.3867 141.923 17.5067 141.483 17.6C141.269 17.64 141.063 17.6733 140.863 17.7C140.663 17.7267 140.443 17.74 140.203 17.74C139.563 17.74 138.983 17.6467 138.463 17.46C137.929 17.3 137.489 17.0333 137.143 16.66C136.969 16.46 136.829 16.2467 136.723 16.02C136.669 15.9 136.629 15.78 136.603 15.66C136.576 15.5533 136.563 15.4267 136.563 15.28C136.563 14.8 136.756 14.4067 137.143 14.1L137.543 13.92L138.003 13.84C138.216 13.84 138.363 13.9133 138.443 14.06C138.429 14.1 138.409 14.1333 138.383 14.16C138.369 14.1867 138.316 14.24 138.223 14.32L137.963 14.54C137.763 14.78 137.663 15.08 137.663 15.44C137.663 15.8 137.763 16.12 137.963 16.4C138.163 16.68 138.476 16.9 138.903 17.06C139.329 17.2333 139.803 17.32 140.323 17.32C140.869 17.32 141.329 17.2467 141.703 17.1C142.089 16.9667 142.409 16.7267 142.663 16.38C142.929 16.0467 143.063 15.6867 143.063 15.3C143.063 14.9533 142.949 14.6267 142.723 14.32C142.496 14.0267 142.163 13.8333 141.723 13.74C141.296 13.66 140.796 13.62 140.223 13.62H139.723C139.029 13.62 138.476 13.5267 138.062 13.34C137.463 13.0733 137.163 12.6467 137.163 12.06C137.163 11.6467 137.329 11.2933 137.663 11C137.916 10.8133 138.283 10.6467 138.763 10.5ZM141.823 8C141.823 7.65333 141.796 7.36 141.743 7.12C141.689 6.88 141.583 6.62667 141.423 6.36C141.103 5.8 140.649 5.52 140.063 5.52C139.529 5.52 139.103 5.78 138.783 6.3C138.489 6.84667 138.343 7.4 138.343 7.96C138.343 8.29333 138.369 8.58 138.423 8.82C138.476 9.04667 138.583 9.28667 138.743 9.54C139.063 10.1 139.503 10.38 140.063 10.38C140.596 10.38 141.036 10.1067 141.383 9.56C141.676 9.08 141.823 8.56 141.823 8ZM147.189 10.8L147.229 10.72L147.309 10.6C147.389 10.6 147.449 10.6733 147.489 10.82L147.589 11.14C147.749 11.6333 148.002 12.04 148.349 12.36C148.696 12.68 149.102 12.84 149.569 12.84C149.969 12.84 150.329 12.72 150.649 12.48C150.982 12.2267 151.149 11.9133 151.149 11.54V11.44C151.149 10.9467 150.709 10.46 149.829 9.98L148.749 9.42C148.642 9.36667 148.509 9.28667 148.349 9.18C148.189 9.07333 148.036 8.94 147.889 8.78C147.622 8.5 147.436 8.19333 147.329 7.86L147.249 7.32C147.249 6.90667 147.369 6.5 147.609 6.1C147.809 5.79333 148.069 5.57333 148.389 5.44C148.709 5.30667 149.042 5.24 149.389 5.24C149.642 5.24 149.829 5.24667 149.949 5.26C150.069 5.27333 150.249 5.32 150.489 5.4L150.829 5.48L151.169 5.42L151.509 5.24C151.536 5.26667 151.562 5.30667 151.589 5.36C151.616 5.41333 151.629 5.49333 151.629 5.6L151.649 6.1L151.629 7.2C151.616 7.28 151.602 7.32667 151.589 7.34L151.529 7.4C151.436 7.34667 151.376 7.3 151.349 7.26L151.209 7.02C151.049 6.63333 150.816 6.3 150.509 6.02C150.202 5.74 149.856 5.6 149.469 5.6C149.136 5.6 148.856 5.69333 148.629 5.88C148.416 6.05333 148.309 6.29333 148.309 6.6V6.78C148.376 7.12667 148.689 7.47333 149.249 7.82L150.589 8.54C150.749 8.63333 150.936 8.74667 151.149 8.88C151.362 9.01333 151.502 9.11333 151.569 9.18C151.836 9.44667 152.029 9.78667 152.149 10.2L152.209 10.82C152.209 11.0067 152.196 11.1533 152.169 11.26C152.169 11.4333 152.136 11.5933 152.069 11.74C151.936 12.2067 151.636 12.5733 151.169 12.84C150.702 13.0933 150.202 13.22 149.669 13.22L149.029 13.18C148.882 13.1533 148.696 13.0933 148.469 13C148.242 12.9067 148.056 12.8467 147.909 12.82C147.829 12.82 147.756 12.84 147.689 12.88L147.509 13L147.289 13.08C147.249 13.0533 147.216 13.0067 147.189 12.94V10.8Z" fill="#2E2E2E"/>
</svg>
