<svg width="70" height="13" viewBox="0 0 70 13" fill="none" xmlns="http://www.w3.org/2000/svg">
<path d="M10.5 11.56C10.5 11.68 10.4333 11.7467 10.3 11.76C10.18 11.76 10.12 11.6933 10.12 11.56C10.08 11.2667 9.94667 11.12 9.72 11.12H9.6C9.48 11.1467 9.33333 11.2133 9.16 11.32L8.72 11.62C7.86667 12.0467 6.95333 12.26 5.98 12.26C4.34 12.26 2.95333 11.7933 1.82 10.86C1.23333 10.38 0.793333 9.82667 0.5 9.2C0.206667 8.57333 0.0600001 7.86 0.0600001 7.06L0.0200001 6.5C0.0200001 4.99333 0.473333 3.64667 1.38 2.46C2.3 1.26 3.51333 0.539999 5.02 0.299999C5.26 0.299999 5.44 0.286666 5.56 0.26L6.14 0.219999C6.92667 0.219999 7.66 0.346666 8.34 0.599999L9.5 1.1C9.59333 1.1 9.68667 1.00667 9.78 0.82L9.92 0.499999L10.02 0.46C10.1 0.513333 10.1533 0.559999 10.18 0.599999L10.24 0.839999L10.32 3.36V3.58C10.32 3.75333 10.26 3.84 10.14 3.84C10.0733 3.84 9.96667 3.62 9.82 3.18L9.64 2.66C9.36 2.03333 8.91333 1.52667 8.3 1.14C7.68667 0.74 7.02667 0.54 6.32 0.54C5.22667 0.54 4.29333 0.946666 3.52 1.76C2.61333 2.73333 2.16 4.08667 2.16 5.82V6.44C2.16 7.41333 2.29333 8.29333 2.56 9.08C2.84 9.85333 3.31333 10.5067 3.98 11.04C4.64667 11.5733 5.40667 11.84 6.26 11.84C6.75333 11.84 7.23333 11.7533 7.7 11.58C8.16667 11.3933 8.56 11.14 8.88 10.82C9.01333 10.6867 9.10667 10.5867 9.16 10.52C9.26667 10.36 9.34667 10.24 9.4 10.16L9.8 9.24L10.2 8.08L10.26 8L10.32 7.96C10.3867 7.98667 10.4267 8.01333 10.44 8.04L10.5 8.14V11.56ZM16.4223 4.22C17.4757 4.22 18.4023 4.60667 19.2023 5.38C20.0157 6.14 20.4223 7.06667 20.4223 8.16C20.4223 9.28 20.0157 10.24 19.2023 11.04C18.389 11.8267 17.4223 12.22 16.3023 12.22C15.1557 12.22 14.1823 11.8467 13.3823 11.1C12.5957 10.34 12.2023 9.39333 12.2023 8.26C12.2023 7.1 12.6157 6.14 13.4423 5.38C14.269 4.60667 15.2623 4.22 16.4223 4.22ZM15.7823 4.6C15.1157 4.78667 14.6157 5.26 14.2823 6.02C14.0023 6.64667 13.8623 7.39333 13.8623 8.26L13.9223 9.02L14.0023 9.62C14.1357 10.2867 14.4023 10.84 14.8023 11.28C15.2157 11.6933 15.7023 11.9 16.2623 11.9L16.6223 11.86L17.0623 11.76C17.6623 11.56 18.109 11.1067 18.4023 10.4C18.629 9.82667 18.7423 9.14 18.7423 8.34V7.82C18.7423 7.5 18.7357 7.26667 18.7223 7.12C18.709 6.96 18.6623 6.74667 18.5823 6.48C18.489 6.06667 18.309 5.7 18.0423 5.38C17.6023 4.83333 17.0157 4.56 16.2823 4.56L15.7823 4.6ZM25.0023 10.52L24.9823 10.62C24.9823 11.0467 25.069 11.32 25.2423 11.44L26.1423 11.68C26.1957 11.7067 26.2223 11.7333 26.2223 11.76L26.2423 11.84L26.1423 12L25.8823 12.02L24.2423 11.94L22.5823 12.02L22.3423 12L22.2623 11.94L22.2223 11.86L22.2823 11.76L22.3423 11.68L23.2223 11.42C23.3957 11.3133 23.4823 11.0133 23.4823 10.52V6.24C23.4823 6.02667 23.4757 5.87333 23.4623 5.78C23.449 5.68667 23.3957 5.54667 23.3023 5.36C23.209 5.17333 23.009 5.08 22.7023 5.08C22.5823 5.08 22.489 5.06667 22.4223 5.04C22.3557 5 22.309 4.96667 22.2823 4.94C22.2557 4.9 22.2423 4.87333 22.2423 4.86L22.3423 4.78L22.5223 4.72C22.7357 4.68 22.949 4.63333 23.1623 4.58C23.3757 4.52667 23.5823 4.46 23.7823 4.38L24.4623 4.18C24.6223 4.18 24.7357 4.3 24.8023 4.54C24.8823 4.78 24.9223 5.22 24.9223 5.86C25.6023 4.78 26.529 4.24 27.7023 4.24L28.4223 4.3C28.809 4.34 29.1423 4.46 29.4223 4.66C29.7157 4.86 29.9557 5.13333 30.1423 5.48L30.2623 6.04L30.3023 6.62V10.52C30.3023 11.0133 30.3823 11.3133 30.5423 11.42L31.4423 11.68L31.5023 11.76L31.5423 11.86C31.529 11.9 31.5157 11.9333 31.5023 11.96C31.489 11.9733 31.4757 11.9867 31.4623 12L31.2023 12.02L29.5423 11.94L27.9023 12.02L27.6623 12L27.5623 11.94L27.5423 11.84L27.5823 11.76C27.609 11.7067 27.6357 11.68 27.6623 11.68L28.5223 11.44C28.709 11.3333 28.8023 11.06 28.8023 10.62V6.6C28.8023 6.04 28.649 5.59333 28.3423 5.26C28.049 4.92667 27.6823 4.76 27.2423 4.76C26.6823 4.76 26.1823 4.98 25.7423 5.42C25.249 5.91333 25.0023 6.52667 25.0023 7.26V10.52ZM34.1556 4.94C33.5823 4.94 33.289 4.89333 33.2756 4.8C33.3423 4.73333 33.3956 4.68 33.4356 4.64C33.609 4.48 33.7756 4.33333 33.9356 4.2C34.229 3.98667 34.449 3.78 34.5956 3.58C34.689 3.48667 34.8223 3.3 34.9956 3.02L35.3156 2.5L35.4556 2.46C35.5356 2.55333 35.5823 2.63333 35.5956 2.7L35.6356 3.3L35.5956 4.42L36.8356 4.4L37.4956 4.44C37.6156 4.48 37.6756 4.56 37.6756 4.68C37.6756 4.84 37.589 4.92 37.4156 4.92L36.6756 4.98L35.6156 4.94V10.12C35.6156 10.5333 35.6423 10.8467 35.6956 11.06C35.7623 11.26 35.9356 11.4267 36.2156 11.56C36.4023 11.64 36.5623 11.68 36.6956 11.68C36.8423 11.68 36.969 11.66 37.0756 11.62L37.5556 11.2C37.7823 11 37.949 10.8867 38.0556 10.86C38.149 10.9133 38.2023 10.9667 38.2156 11.02V11.1C38.2156 11.18 38.1823 11.2733 38.1156 11.38L37.9156 11.62C37.689 11.82 37.4156 11.96 37.0956 12.04C36.7756 12.1333 36.4623 12.18 36.1556 12.18H36.0756C35.3423 12.18 34.8356 12.0067 34.5556 11.66C34.289 11.3133 34.1556 10.7733 34.1556 10.04V4.94ZM44.6958 11.04C43.8424 11.8133 42.8758 12.2 41.7958 12.2H41.7158C41.2491 12.2 40.8558 12.0867 40.5358 11.86C40.2158 11.6333 40.0358 11.2933 39.9958 10.84L39.9758 10.64C39.9758 10.1467 40.1691 9.70667 40.5558 9.32C40.8624 9 41.2824 8.72 41.8158 8.48C42.7891 8.04 43.7624 7.64 44.7358 7.28L44.7558 6.28L44.6958 5.54C44.6824 5.35333 44.6091 5.18667 44.4758 5.04C44.3424 4.89333 44.1491 4.78 43.8958 4.7C43.6424 4.62 43.3758 4.58 43.0958 4.58L42.7558 4.6C42.1158 4.68 41.7291 4.96667 41.5958 5.46C41.5024 5.92667 41.3358 6.2 41.0958 6.28L40.8358 6.32C40.6491 6.32 40.5158 6.27333 40.4358 6.18C40.3558 6.07333 40.3024 5.92 40.2758 5.72C40.2758 5.41333 40.4091 5.14667 40.6758 4.92C40.9558 4.69333 41.3158 4.52 41.7558 4.4C42.2091 4.28 42.6558 4.22 43.0958 4.22C43.2958 4.22 43.4958 4.22 43.6958 4.22C43.8824 4.26 44.0824 4.29333 44.2958 4.32C44.5091 4.34667 44.7558 4.40667 45.0358 4.5C45.8091 4.78 46.1958 5.35333 46.1958 6.22V10.58C46.1958 10.8333 46.2424 11.06 46.3358 11.26C46.4424 11.4467 46.5891 11.54 46.7758 11.54L47.1358 11.4L47.3758 11.24L47.5158 11.2C47.5558 11.2267 47.5891 11.2733 47.6158 11.34C47.6158 11.5667 47.4758 11.7667 47.1958 11.94C46.9158 12.1133 46.5891 12.2 46.2158 12.2C45.8558 12.2 45.5358 12.1133 45.2558 11.94C44.9758 11.7533 44.7891 11.4533 44.6958 11.04ZM44.7358 7.66C44.0558 7.91333 43.5358 8.14 43.1758 8.34C42.5758 8.66 42.1358 9.02 41.8558 9.42C41.6691 9.71333 41.5758 10.02 41.5758 10.34C41.5758 10.82 41.7424 11.1667 42.0758 11.38C42.2624 11.5 42.4824 11.56 42.7358 11.56C43.2024 11.56 43.6491 11.4067 44.0758 11.1C44.5158 10.7933 44.7358 10.4467 44.7358 10.06V7.66ZM49.2894 8.32C49.2894 7.48 49.5494 6.69333 50.0694 5.96C50.6027 5.22667 51.2894 4.72 52.1294 4.44C52.5427 4.29333 53.0427 4.22 53.6294 4.22C54.0427 4.22 54.416 4.26667 54.7494 4.36C55.096 4.44 55.376 4.58 55.5894 4.78C55.6694 4.83333 55.736 4.92667 55.7894 5.06L55.8694 5.38C55.8694 5.48667 55.8294 5.6 55.7494 5.72C55.6827 5.82667 55.576 5.88667 55.4294 5.9L55.2694 5.92C55.0427 5.92 54.8627 5.80667 54.7294 5.58L54.3894 4.88C54.336 4.81333 54.216 4.74667 54.0294 4.68L53.5294 4.6H53.3894C52.9227 4.6 52.5094 4.75333 52.1494 5.06C51.7894 5.36667 51.5094 5.78667 51.3094 6.32L51.0894 7.24C51.0227 7.64 50.9894 7.98 50.9894 8.26C50.9894 9.15333 51.156 9.89333 51.4894 10.48C51.8894 11.16 52.476 11.56 53.2494 11.68L53.6894 11.72C54.1294 11.72 54.5094 11.62 54.8294 11.42L55.6494 10.74C55.7827 10.74 55.856 10.8133 55.8694 10.96L55.8294 11.18C55.696 11.4467 55.4427 11.68 55.0694 11.88C54.8294 12 54.4894 12.1 54.0494 12.18L53.2294 12.22C52.1227 12.22 51.1894 11.8867 50.4294 11.22C49.6694 10.5533 49.2894 9.63333 49.2894 8.46V8.32ZM58.5697 4.94C57.9964 4.94 57.703 4.89333 57.6897 4.8C57.7564 4.73333 57.8097 4.68 57.8497 4.64C58.023 4.48 58.1897 4.33333 58.3497 4.2C58.643 3.98667 58.863 3.78 59.0097 3.58C59.103 3.48667 59.2364 3.3 59.4097 3.02L59.7297 2.5L59.8697 2.46C59.9497 2.55333 59.9964 2.63333 60.0097 2.7L60.0497 3.3L60.0097 4.42L61.2497 4.4L61.9097 4.44C62.0297 4.48 62.0897 4.56 62.0897 4.68C62.0897 4.84 62.003 4.92 61.8297 4.92L61.0897 4.98L60.0297 4.94V10.12C60.0297 10.5333 60.0564 10.8467 60.1097 11.06C60.1764 11.26 60.3497 11.4267 60.6297 11.56C60.8164 11.64 60.9764 11.68 61.1097 11.68C61.2564 11.68 61.383 11.66 61.4897 11.62L61.9697 11.2C62.1964 11 62.363 10.8867 62.4697 10.86C62.563 10.9133 62.6164 10.9667 62.6297 11.02V11.1C62.6297 11.18 62.5964 11.2733 62.5297 11.38L62.3297 11.62C62.103 11.82 61.8297 11.96 61.5097 12.04C61.1897 12.1333 60.8764 12.18 60.5697 12.18H60.4897C59.7564 12.18 59.2497 12.0067 58.9697 11.66C58.703 11.3133 58.5697 10.7733 58.5697 10.04V4.94ZM64.6498 9.8L64.6898 9.72L64.7698 9.6C64.8498 9.6 64.9098 9.67333 64.9498 9.82L65.0498 10.14C65.2098 10.6333 65.4632 11.04 65.8098 11.36C66.1565 11.68 66.5632 11.84 67.0298 11.84C67.4298 11.84 67.7898 11.72 68.1098 11.48C68.4432 11.2267 68.6098 10.9133 68.6098 10.54V10.44C68.6098 9.94667 68.1698 9.46 67.2898 8.98L66.2098 8.42C66.1032 8.36667 65.9698 8.28667 65.8098 8.18C65.6498 8.07333 65.4965 7.94 65.3498 7.78C65.0832 7.5 64.8965 7.19333 64.7898 6.86L64.7098 6.32C64.7098 5.90667 64.8298 5.5 65.0698 5.1C65.2698 4.79333 65.5298 4.57333 65.8498 4.44C66.1698 4.30667 66.5032 4.24 66.8498 4.24C67.1032 4.24 67.2898 4.24667 67.4098 4.26C67.5298 4.27333 67.7098 4.32 67.9498 4.4L68.2898 4.48L68.6298 4.42L68.9698 4.24C68.9965 4.26667 69.0232 4.30667 69.0498 4.36C69.0765 4.41333 69.0898 4.49333 69.0898 4.6L69.1098 5.1L69.0898 6.2C69.0765 6.28 69.0632 6.32667 69.0498 6.34L68.9898 6.4C68.8965 6.34667 68.8365 6.3 68.8098 6.26L68.6698 6.02C68.5098 5.63333 68.2765 5.3 67.9698 5.02C67.6632 4.74 67.3165 4.6 66.9298 4.6C66.5965 4.6 66.3165 4.69333 66.0898 4.88C65.8765 5.05333 65.7698 5.29333 65.7698 5.6V5.78C65.8365 6.12667 66.1498 6.47333 66.7098 6.82L68.0498 7.54C68.2098 7.63333 68.3965 7.74667 68.6098 7.88C68.8232 8.01333 68.9632 8.11333 69.0298 8.18C69.2965 8.44667 69.4898 8.78667 69.6098 9.2L69.6698 9.82C69.6698 10.0067 69.6565 10.1533 69.6298 10.26C69.6298 10.4333 69.5965 10.5933 69.5298 10.74C69.3965 11.2067 69.0965 11.5733 68.6298 11.84C68.1632 12.0933 67.6632 12.22 67.1298 12.22L66.4898 12.18C66.3432 12.1533 66.1565 12.0933 65.9298 12C65.7032 11.9067 65.5165 11.8467 65.3698 11.82C65.2898 11.82 65.2165 11.84 65.1498 11.88L64.9698 12L64.7498 12.08C64.7098 12.0533 64.6765 12.0067 64.6498 11.94V9.8Z" fill="#2E2E2E"/>
</svg>
